<svg width="1564" height="432" viewBox="0 0 1564 432" fill="none" xmlns="http://www.w3.org/2000/svg">
<path d="M593 51L308.5 370L262 432H1.5L361.5 147L593 51Z" fill="#D9D9D9" fill-opacity="0.18"/>
<path d="M627.096 51L859.08 410.006L873 431.5L767.5 431.5L704.621 302.528L627.096 51Z" fill="#D9D9D9" fill-opacity="0.14"/>
<path d="M535.501 0.5H943.501L588.001 41.5L362.001 132L535.501 0.5Z" fill="#D9D9D9" fill-opacity="0.23"/>
<path d="M0 0H536L278.5 196.5L0 418V0Z" fill="#D9D9D9" fill-opacity="0.3"/>
<path d="M1562.5 428.5L0 431.5L610.552 209.5L1564 -12L1562.5 428.5Z" fill="#D9D9D9" fill-opacity="0.09"/>
<path d="M652.5 51L1269.5 -25L819 306L652.5 51Z" fill="#D9D9D9" fill-opacity="0.11"/>
<path d="M1124 238L1564 0V411.5L1170.5 238H1124Z" fill="#D9D9D9" fill-opacity="0.11"/>
<path d="M1564 432L1263.5 430L1069 430L1166.01 246.708L1564 432Z" fill="#D9D9D9" fill-opacity="0.23"/>
<path d="M1121.5 245H1153L1060.5 431H1029.5L1121.5 245Z" fill="#D9D9D9" fill-opacity="0.23"/>
</svg>
