<svg width="1439" height="1093" viewBox="0 0 1439 1093" fill="none" xmlns="http://www.w3.org/2000/svg">
<path opacity="0.26" d="M402.929 153.95L680.5 106.5L487 178.287L324.5 344.287L84.984 598.209L402.929 153.95Z" fill="#D9D9D9" fill-opacity="0.33"/>
<path opacity="0.26" d="M1111.22 960.193L839 888.115L1044.84 903.147L1261.59 819.601L1584.92 688.046L1111.22 960.193Z" fill="#D9D9D9" fill-opacity="0.33"/>
<path opacity="0.26" d="M382.482 954.751L61.9998 944.907L304.123 915.763L493.704 781.52L774.792 574.556L382.482 954.751Z" fill="#ECECEC"/>
<path opacity="0.26" d="M740.875 134.855L544 192.001L693.721 125.575L813.943 2.74017L992.407 -184.422L740.875 134.855Z" fill="#D9D9D9" fill-opacity="0.33"/>
<path opacity="0.08" d="M533.5 377L912.5 73L576 415.5L456 670.5L533.5 377Z" fill="#D9D9D9"/>
<path opacity="0.26" d="M345.046 395.707L965 -15.0005L387 413.5L-23 1055L345.046 395.707Z" fill="#F5F5F5"/>
<path opacity="0.26" d="M945 668.999L923 358.999L987.5 707.499L367 1091L945 668.999Z" fill="#E8E8E8"/>
<path opacity="0.26" d="M1067.61 713.594L972.886 1009.59L1042.45 662.063L1761 536.477L1067.61 713.594Z" fill="#E8E8E8"/>
<path opacity="0.26" d="M173.58 245.071L309.683 127L193.454 251.178L112.318 397.129L173.58 245.071Z" fill="#D9D9D9"/>
<path opacity="0.26" d="M704 446.999L696.58 317.499L716.454 442.177L635.318 588.128L704 446.999Z" fill="#D9D9D9"/>
<path opacity="0.26" d="M1185.12 83.5168L1076.69 105.148L1104.17 272.595L833 289.314L1017.7 222.95L954.697 35.7409L1185.12 83.5168Z" fill="#D9D9D9" fill-opacity="0.5"/>
<path opacity="0.26" d="M843.194 314.976L1177.44 300.301L1260.27 111.096L1404.02 195.818L1420.43 57L1411 225L1276 137.5L1207.71 331.651L843.194 314.976Z" fill="#E4E4E4"/>
<path opacity="0.26" d="M24.8474 208.98L230.294 58.045L202.565 -96.8693L329.499 -104.135L281.069 -199L382.903 -60.3875L240.866 -39.0191L262.748 65.0693L24.8474 208.98Z" fill="#E4E4E4"/>
<path opacity="0.26" d="M396.169 503.999L363.512 574.624H420L312.319 640.835L232 729.999L396.169 503.999Z" fill="#D9D9D9"/>
<path opacity="0.18" d="M1359.95 1060.6L1290.45 1029.55L1284.92 1051.4L1227.3 992.493L1143.38 938.183L1359.95 1060.6Z" fill="#D9D9D9"/>
<path opacity="0.26" d="M1228.87 518.856L1032 576.002L1181.72 509.576L1301.94 386.741L1480.41 199.579L1228.87 518.856Z" fill="#D9D9D9" fill-opacity="0.33"/>
</svg>
