<svg width="1439" height="1093" viewBox="0 0 1439 1093" fill="none" xmlns="http://www.w3.org/2000/svg">
<path opacity="0.26" d="M402.929 153.951L680.5 106.5L487 178.288L324.5 344.288L84.9838 598.21L402.929 153.951Z" fill="#D9D9D9" fill-opacity="0.33"/>
<path opacity="0.26" d="M1111.22 960.194L839 888.116L1044.84 903.148L1261.59 819.602L1584.92 688.047L1111.22 960.194Z" fill="#D9D9D9" fill-opacity="0.33"/>
<path opacity="0.26" d="M382.482 954.752L62 944.908L304.123 915.764L493.705 781.521L774.792 574.557L382.482 954.752Z" fill="#ECECEC"/>
<path opacity="0.26" d="M740.875 134.856L544 192.002L693.721 125.576L813.943 2.74115L992.407 -184.421L740.875 134.856Z" fill="#D9D9D9" fill-opacity="0.33"/>
<path opacity="0.08" d="M533.5 377L912.5 73L576 415.5L456 670.5L533.5 377Z" fill="#D9D9D9"/>
<path opacity="0.26" d="M345.046 395.707L965 -15L387 413.5L-23 1055L345.046 395.707Z" fill="#F5F5F5"/>
<path opacity="0.26" d="M945 669L923 359L987.5 707.5L367 1091L945 669Z" fill="#E8E8E8"/>
<path opacity="0.26" d="M1067.61 713.595L972.886 1009.59L1042.45 662.064L1761 536.478L1067.61 713.595Z" fill="#E8E8E8"/>
<path opacity="0.26" d="M173.58 245.071L309.683 127L193.454 251.178L112.318 397.129L173.58 245.071Z" fill="#D9D9D9"/>
<path opacity="0.26" d="M704 447L696.58 317.5L716.454 442.178L635.318 588.129L704 447Z" fill="#D9D9D9"/>
<path opacity="0.26" d="M1185.12 83.5168L1076.68 105.148L1104.17 272.595L833 289.314L1017.7 222.95L954.697 35.7409L1185.12 83.5168Z" fill="#D9D9D9"/>
<path opacity="0.26" d="M843.194 314.976L1177.44 300.301L1260.27 111.096L1404.02 195.818L1420.43 57L1430.34 282.513L1259.82 202.149L1207.71 331.651L843.194 314.976Z" fill="#E4E4E4"/>
<path opacity="0.26" d="M231.772 -222.708L85.3063 -14.0515L161.07 123.888L43.1072 171.322L119.304 245.745L-21.4742 146.927L106.295 81.3042L52.308 -10.3401L231.772 -222.708Z" fill="#E4E4E4"/>
<path opacity="0.26" d="M396.169 504L363.512 574.625H420L312.319 640.836L232 730L396.169 504Z" fill="#D9D9D9"/>
<path opacity="0.18" d="M1359.95 1060.6L1290.45 1029.56L1284.92 1051.4L1227.3 992.494L1143.38 938.184L1359.95 1060.6Z" fill="#D9D9D9"/>
</svg>
