<svg width="1440" height="80" viewBox="0 0 1440 80" fill="none" xmlns="http://www.w3.org/2000/svg">
<rect width="1440" height="80" fill="white"/>
<path d="M0 0H1440V21H0V0Z" fill="#182752"/>
<path d="M622 37L504 28L672.793 14L797 20.5L642.5 24.5L622 37Z" fill="#26A3F2"/>
<path d="M350 80L-3.19524e-06 72.6666L160.102 58.9778L229.539 58L350 80Z" fill="#26A3F2"/>
<rect width="292" height="35" fill="#182752"/>
<path d="M226 49.2911L741.962 43L480.591 55.1876L386.726 66.8328L362.813 74.1249L226 49.2911Z" fill="#26A3F2"/>
<path d="M1029 59L778 59L905.203 54.5849L950.927 49.434L962.602 46L1029 59Z" fill="#26A3F2"/>
<path d="M0 35H256L58.5 49H0V35Z" fill="#26A3F2"/>
<path d="M1440 25L1184 25L1381.5 16L1440 16L1440 25Z" fill="#26A3F2"/>
<path d="M280.772 21H526L357.207 35H233L280.772 21Z" fill="#26A3F2"/>
<path d="M667.772 35H913L744.207 49H620L667.772 35Z" fill="#26A3F2"/>
<path d="M800.5 21L953 23.5L1012.5 21H1073L955.5 30L851.5 26L800.5 21Z" fill="#26A3F2"/>
<path d="M800 18L952.5 20.5L1125 9L955 27L851 23L796 20.5L800 18Z" fill="#182752"/>
<path d="M1115.88 16L1187.73 18.5L1280.5 21L1188.91 25L1123.5 26.5L1139.91 21L1114 18.5L1115.88 16Z" fill="#182752"/>
<path d="M1212.77 60L1438.5 34.5L1285.5 60L1165 74L1212.77 60Z" fill="#26A3F2"/>
<path d="M1061.27 36.5H1306.5L1070.5 47.5L999 33L1061.27 36.5Z" fill="#26A3F2"/>
<path d="M1142 21L1125 26.5L1176 25L1136 27.5L1116 29L1123.5 23.5L1072 21H1142Z" fill="#26A3F2"/>
</svg>
