<?xml version="1.0" encoding="UTF-8"?>
<svg id="Layer_1" data-name="Layer 1" xmlns="http://www.w3.org/2000/svg" xmlns:xlink="http://www.w3.org/1999/xlink" viewBox="0 0 148.27 133.13">
  <defs>
    <style>
      .cls-1, .cls-2, .cls-3 {
        fill: #fff;
      }

      .cls-2 {
        stroke-width: .7px;
      }

      .cls-2, .cls-4, .cls-3 {
        stroke: #fff;
        stroke-miterlimit: 10;
      }

      .cls-5 {
        fill: #eb2127;
      }

      .cls-6 {
        fill: #adb0b3;
      }

      .cls-7 {
        fill: #e92429;
      }

      .cls-7, .cls-8 {
        fill-rule: evenodd;
      }

      .cls-9 {
        clip-path: url(#clippath);
      }

      .cls-10, .cls-8 {
        fill: #002554;
      }

      .cls-11 {
        fill: none;
      }

      .cls-12 {
        fill: #b1b1b1;
      }

      .cls-4 {
        fill: #1a375d;
        stroke-width: .25px;
      }

      .cls-3 {
        font-family: EurostileExtended-Roman, 'Eurostile Extended';
        font-size: 11.43px;
        stroke-width: .75px;
      }
    </style>
    <clipPath id="clippath">
      <polygon class="cls-11" points="120.66 8.99 120.66 92.97 74.14 123.08 27.61 92.97 27.61 8.99 120.66 8.99"/>
    </clipPath>
  </defs>
  <polygon class="cls-10" points="19.88 98.02 19.88 0 128.4 0 128.4 98.02 74.14 133.13 19.88 98.02"/>
  <polygon class="cls-1" points="123.48 17.42 123.48 94.84 74.14 126.77 24.79 94.84 24.79 17.42 123.48 17.42"/>
  <g class="cls-9">
    <g>
      <rect class="cls-10" x="26.44" y="20.22" width="95.39" height="103.32"/>
      <g>
        <rect class="cls-5" x="45.89" y="17.28" width="17.3" height="106.26"/>
        <rect class="cls-5" x="85.09" y="17.28" width="17.29" height="106.26"/>
      </g>
    </g>
  </g>
  <path class="cls-8" d="m145.04,36.85c-1.68-6.22-3.43-12.42-5.2-18.47l-1.44-4.89-19.56-.28-.79-7.69h-17.55l-2.17,2.82c-.86,1.12-1.76,2.28-2.68,3.44-1.88-.04-3.75-.07-5.62-.1l-7.36-.11v.11c-.95-.09-1.83-.1-2.57-.1h-.27c-1.88-.01-3.76-.02-5.63-.02-2.41,0-4.83,0-7.24.02l-4.55.03h0s-.38,0-.38,0h-2.23v.04l-2.51.04c-2.87.05-5.74.1-8.61.17l-3.07.07v-.03l-7.52.26c-3.85.13-7.71.29-11.46.45l-1.31.06v-.02s-2.38.12-2.38.12l-1.62.07h0s-1.96.11-1.96.11c-3.8.2-7.64.42-11.43.66l-6.77.42v20.89s1.97-.22,1.97-.22c-.06.73-.11,1.46-.17,2.19l-2.95.71v21.4l9.22-2.66c2.32-.67,4.66-1.3,7.01-1.9l-3.87,18.74,6.58-2.01c16.06-4.9,35.15-7.48,55.2-7.48s39.14,2.59,55.2,7.48l6.58,2.01-3.87-18.74c2.34.61,4.69,1.23,7.01,1.9l9.22,2.66v-21.39l-3.24-.78Z"/>
  <g>
    <path class="cls-1" d="m72.45,116.63c-13.65-7.24-21.8-19.69-21.8-33.32v-16.14h46.97v16.14c0,13.63-8.15,26.09-21.8,33.32l-1.68.89-1.68-.89Z"/>
    <path class="cls-10" d="m73.22,115.19c-13.11-6.95-20.94-18.86-20.94-31.88v-14.51h43.71v14.51c0,13.02-7.83,24.93-20.94,31.88l-.92.49-.92-.49Z"/>
    <path class="cls-1" d="m94.03,70.75v12.8c-.05,6.02-1.92,11.83-5.3,16.95-3.42,5.19-8.4,9.67-14.59,12.96-12.31-6.53-19.8-17.78-19.9-29.91v-12.8h39.79Z"/>
    <path class="cls-5" d="m94.03,83.55c-.05,6.02-1.92,11.83-5.3,16.95-3.42,5.19-8.4,9.67-14.59,12.96-12.31-6.53-19.8-17.78-19.9-29.91h39.79Z"/>
    <g>
      <path class="cls-1" d="m79.97,104.22s.02-.01.03-.02c0,0-.02.01-.03.02Z"/>
      <path class="cls-1" d="m79.73,96.16h-.45c.15-.02.3-.02.45,0Z"/>
      <path class="cls-1" d="m68.27,104.87c-.08.02-.17.03-.25.03l.25-.03Z"/>
      <path class="cls-1" d="m64.68,103.47l.07.25s.87,1.2,1.42,1.18.36-.02.36-.02c0,0,.19-.65.14-.66s-1.19-.68-1.23-.68-.76-.06-.76-.06Z"/>
      <path class="cls-1" d="m85.92,98.66c.06.27,0,.56-.17.77-.02.02-.03.04-.04.06.21-.49.03-1.05,0-1.16,0,0,.13.13.25.33h-.03Z"/>
      <path class="cls-1" d="m79.97,104.22s.02-.01.03-.02c0,0-.02.01-.03.02Z"/>
      <path class="cls-1" d="m85.95,98.66c-.12-.2-.25-.33-.25-.33h0s-.01-.04-.02-.06h0s-.02-.08-.02-.08c-.2-.56-.69-.95-1.12-1.34-.2-.2-.51-.23-.78-.25-.86-.04-1.73.12-2.58.01-.49-.06-.91-.33-1.38-.44-.02,0-.05,0-.07-.01-.15-.02-.3-.02-.45,0,0,0-.02,0-.03,0,0,0,0,0,0,0h-.09s-1.05-.25-1.05-.25c-.05,0-.11-.01-.15-.03h0c-.13-.04-.23-.14-.33-.23l-1.19-1.2c-.18-.16-.41-.28-.54-.48h0s-.87-.87-.87-.87c0,0,0,0,0,0l-.06-.06-.02-.02c-.08-.04-.16-.08-.24-.13,0,0,0,0,0,0-.07-.04-.13-.08-.2-.12,0,0,0,0,0,0-.13-.07-.25-.14-.39-.19-.2-.08-.42-.09-.63-.08.35-.23.59-.59.96-.79.2-.11.43-.15.66-.15.22-.24.17-.58.27-.86.17-.15.4-.22.61-.31.07-.21.19-.41.27-.62.1-.24.34-.36.51-.53.25-.24.38-.61.3-.95-.08-.31-.23-.61-.4-.88-.12-.19-.25-.39-.41-.55-.31-.3-.8-.24-1.1-.54-.18-.17-.25-.44-.49-.54-.17-.04-.34-.04-.51-.08-.38-.06-.78-.07-1.14.1-.31.15-.49.45-.75.66-.12.09-.28.09-.39.2-.14.14-.28.29-.41.44-.07.09-.14.18-.17.29-.13.42,0,.87-.11,1.29-.04.19-.25.26-.36.41-.11.14-.11.35-.26.47-.26.22-.6.32-.91.45-.23.08-.44.21-.68.27-.97.26-1.96.46-2.93.73-.22.05-.41.18-.58.31,0,0,0,0,0,0-.34.28-.63.61-.94.93-.16.15-.2.37-.28.57-.02.06-.04.11-.06.16,0,0,0,0,0,0-.12.28-.29.53-.44.79-.14.24-.38.4-.53.64-.21.32-.31.69-.46,1.04-.1.25-.25.49-.41.71-.08.91-.08,1.73.53,3.5.49,1.42,1.25,2.92,1.8,3.96.02.04.04.07.06.11.02,0,.04,0,.06,0,.25-.01.5-.02.74-.01,0,.01.03.04.04.05.2.46.54.84.94,1.13.14-.15.35-.07.52-.04.15,0,.13-.18.15-.28.29.05.46.35.76.35.02,0,.04,0,.06,0,.08,0,.17,0,.25-.03h0c.08-.02.15-.05.21-.11.11-.11.11-.26.11-.4.73.22,1.49.24,2.22.42-.03.09-.13.12-.21.17-.16.07-.32.09-.49.1l-.34.59-.05.13c.73-.11,1.46-.2,2.2-.24.22-.24-.02-.59.14-.85.17-.31.46-.52.76-.7.4-.22.85-.4,1.31-.39.4.04.74.29,1.07.49.61.39,1.27.78,1.68,1.39.39.55.87,1.01,1.32,1.5.07.07.05.17.06.26.02.49-.05,1.02-.37,1.41-.27.35-.73.51-1.16.52-.43.01-.84-.17-1.21-.37-.43-.23-.84-.51-1.32-.65-.2-.06-.42-.06-.63-.07-.15.04-.13.26-.26.33-.44-.05-.87-.23-1.21-.51-.16-.12-.33-.26-.38-.46-.04-.14,0-.27.05-.4.72.13,1.42.4,2.16.43.22-.01.36.17.47.33.09.13.24.21.39.21.05-.11.11-.24.07-.36-.03-.13-.16-.21-.27-.27-.27-.12-.58-.15-.85-.28-.22-.1-.43-.21-.66-.28-.28-.09-.56-.21-.86-.22-.05-.08-.13-.12-.23-.11-.11-.22-.24-.46-.45-.6-.13-.09-.28-.14-.43-.15,0,.09,0,.18.03.26.09.24.39.34.4.62,0,.23-.05.45-.14.66-.04.1-.12.17-.21.22.24.33.52.65.81.85.71.5,3.48,1.17,3.99,1.29h0s.02,0,.02,0c.26-.01.53-.02.79-.04.41-.02.83-.04,1.24-.07.08,0,.16,0,.22-.01.05-.07.09-.14.13-.2.02-.03.03-.05.04-.08.04-.07.07-.13.1-.2.01-.02.02-.05.03-.07,0-.01.01-.02.02-.04,0-.01.01-.02.02-.04.02-.05.04-.1.06-.14,0-.02.02-.05.03-.07,0-.02.02-.05.02-.07,0-.02.01-.04.02-.05,0,0,0-.02,0-.02.01-.04.02-.08.03-.12,0-.02.01-.04.02-.07,0,0,0,0,0-.01,0,0,0,0,0,0,0-.01,0-.02,0-.03,0,0,0,0,0,0,0,0,0,0,0,0,.08-.4.06-.73,0-.98,0-.03-.02-.06-.02-.09-.07-.27-.18-.42-.18-.42l.11-.3v-.54l.07-.18c.38-2.21,2.25-3.88,3.08-4.53.03-.15.06-.3.08-.46,0-.09,0-.17.03-.26.05-.54.04-1,.04-1-.04-.07-.08-.14-.12-.2,0,0,0,0,0,0-.17-.26-.4-.49-.65-.68.15-.25.46-.35.74-.39.4-.05.8-.04,1.2-.02.11.32.35.59.46.91.05.12.06.25.08.37-.26.17-.58.03-.86.13-.19.04-.12.34.04.38.3.09.62-.02.93.02,0,.1,0,.2,0,.29,0,.02,0,.03,0,.04,0,.03,0,.07-.01.1,0,.02,0,.03,0,.05,0,.02,0,.03,0,.05,0,.03,0,.06-.01.09,0,.02,0,.03,0,.05-.02.09-.04.19-.05.28,0,.02,0,.05-.01.07-.03.14-.06.29-.08.43,0,.02,0,.03,0,.05,0,0,0,.02,0,.02h0c-.01.21-.09.43-.12.51h0c-.02.41-.22.78-.22,1.19.1,0,.21-.03.26-.13.08-.16.07-.34.07-.51.1-.02.2-.03.29-.08.07-.04.11-.11.17-.15.14-.03.3-.04.42.05.12.1.15.25.2.39.11-.11.17-.26.16-.41,0-.19-.05-.39.05-.56,0,0,0,0,0,0,0-.11.01-.22.01-.22-.05-.43-.09-.9.11-1.3.1-.24.43-.23.55-.45.05-.13.03-.29.1-.42.01-.02.02-.04.04-.06.17-.22.23-.51.17-.77h.03Zm-11.61-12.01c-.25-.15-.55-.12-.81-.24.22-.33.68-.26,1-.16.48.22.82.69,1.35.82-.05.06-.12.11-.2.1-.24,0-.44-.16-.67-.23,0,.07-.02.15.03.21.07.09.17.13.27.17.3.12.63.18.91.34.14.08.27.2.31.36-.4-.07-.77-.32-1.19-.32-.15,0-.29.04-.42.09-.28-.45-.93-.31-1.27-.68-.09-.1-.12-.24-.13-.37.18-.03.35.05.5.15.14.09.32.1.48.07-.02-.12-.07-.24-.18-.3Zm-1.68,2.35c.11.01.18-.09.26-.16.1-.11.24-.18.38-.16.15.21.32.42.55.54.24.01.53-.06.64-.31.23.13.5.1.75.08.05-.04.02-.12.02-.17-.01-.15-.15-.23-.24-.32-.1-.08-.13-.23-.09-.35.05-.1.17-.12.27-.1.24.05.44.2.61.36.11.11.23.22.28.36.06.33-.15.67-.45.79-.2.09-.43.08-.65.09-.06.1.06.2.05.31-.11,0-.22,0-.34,0-.04.18-.09.38-.24.5-.11.09-.25.12-.39.14-.05.06.02.12.06.16.25.13.55,0,.8.12.12.05.13.21.1.32,0,.07-.08.06-.13.06-.17,0-.3-.18-.48-.13-.14,0-.07.2-.19.23-.1.02-.2,0-.29,0-.03.3-.3.5-.54.64-.38-.1-.65-.43-.76-.8-.24-.79-.16-1.63-.3-2.43.16-.04.22.13.31.23Zm.54,3.43c-.12,0-.25.01-.35-.07-.07-.06-.07-.16-.08-.24.15.09.32.17.43.31Zm-4.49-1.62c.29-.22.66-.3,1.01-.31.07,0,.15.01.2-.04.25-.24.6-.33.94-.38.31-.04.63-.03.94-.01-.02.29.01.59.09.87.08.31.21.63.13.95-.12.04-.24.08-.36.08-.13,0-.26-.04-.38-.08-.06-.47.11-.97-.1-1.41-.11.11-.16.26-.19.41-.07.37-.03.74-.05,1.11-.24.09-.5.05-.73-.06-.28-.12-.55-.29-.83-.4-.25-.11-.53-.24-.65-.5-.02-.07-.07-.16-.03-.23Zm-.78,12.21c-.17.04-.36-.02-.48-.14-.04-.03-.04-.06,0-.09.16-.21.42-.31.68-.38.41-.1.84-.13,1.25-.24.69-.17,1.4-.37,2.12-.28.39.05.77.17,1.15.31-1.21.16-2.45.11-3.65.4-.37.08-.67.34-1.04.42Zm4.87-5.45c-.05-.34.08-.69.28-.96.2-.26.42-.5.6-.77h0s0,.01.02.02c.04.06.07.12.12.16,0,0,0,0,.01,0,.2.14.36.32.55.47.12.1.28.13.42.21.1.06.07.22.19.25.22.09.45.19.63.35.2.19.5.19.72.34.04.03.09.07.13.11,0,0,0,0,0,0,.05.06.09.13.08.21,0,.24-.09.49-.28.65-.22.18-.48.28-.73.41h0s-2.7,1.9-2.7,1.9l-.67-.03-.54-.8.37-.68c.21-.36.42-.81.57-1.19h0s0,0,0,0c.11-.29.2-.53.24-.65,0,0,0,0,0,0Zm-.63,3.99c.08.03.07.13.07.2-.88-.15-1.78-.04-2.66.08-.96.13-1.94.25-2.91.14.86-.52,1.85-.88,2.86-.86.73,0,1.42.29,2.12.43.17.04.35-.06.51.02Zm-2.15,1.89c-.33.19-.59.54-1,.56-.03-.28.19-.5.41-.64.3-.18.59-.38.91-.51.6-.25,1.25-.34,1.89-.35-.24.31-.67.3-1.03.38-.42.12-.81.34-1.19.56Zm3.09-.73c-.01.07-.01.15-.09.19-.16.08-.35.03-.52.07-.33.08-.57.37-.92.39-.07,0-.14,0-.21,0,.05-.21.27-.29.46-.34.42-.1.82-.31,1.26-.3Zm-.38.88c-.45.19-.74.63-1.18.83-.12.06-.25.09-.38.11-.02-.16-.02-.32.06-.46.14-.26.4-.43.66-.56.55-.25,1.16-.35,1.76-.37,0-.11,0-.22,0-.33.08.02.18.03.22.1.08.13.08.29.09.44-.41.06-.84.07-1.23.23Zm8.76-4.3c.35.53.27,1.3-.2,1.73-.3.32-.7.54-.95.92-.07.1-.1.22-.14.33-.18.03-.36,0-.54.01-.5.59-.74,1.36-1.25,1.94-.15.17-.31.33-.45.5-.14.17-.18.39-.32.56-.08.09-.21.14-.33.1-.09-.13-.25-.26-.23-.44,0-.21.26-.29.32-.48.1-.29.08-.61.19-.9.04-.12.1-.24.09-.37-.05-.06-.11-.11-.16-.16.25-.51.65-.91.96-1.37.19-.13.44-.05.65-.11.1-.03.15-.13.18-.23.01-.05.04-.11,0-.16-.09-.14-.26-.19-.41-.18-.38,0-.71.21-1.05.36-.07.14-.02.3-.07.44-.04.09-.16.07-.23.13-.14.13-.15.34-.28.48-.08.08-.21.1-.29.18-.09.11-.04.27-.15.37-.26.28-.55.57-.93.66-.41.08-.82-.09-1.16-.32-.31-.2-.49-.55-.57-.9-.37-.17-.8-.26-1.11-.53-.16-.13-.25-.33-.29-.53,1.09-.76,2.18-1.56,3.41-2.1,1.35-.61,2.85-.86,4.33-.8.37.22.73.5.96.87Zm3.13,2.98c-.15.06-.31-.04-.46,0-.06,0-.06.07-.09.11-.11,0-.21,0-.32,0,0-.33.38-.54.68-.49.17.03.23.23.19.38Zm-.11-.75c-.17,0-.35,0-.52,0,.11-.39.16-.79.32-1.17.08.08.13.18.16.29.07.29.04.59.05.88Zm.34-3c-.24.03-.35-.25-.58-.24-.09,0-.19,0-.28.05-.04.11-.02.22-.05.33-.06,0-.12-.01-.17-.02-.01-.49-.26-.93-.33-1.41-.42.04-.81.22-1.23.24-.17.02-.34,0-.51-.02.04.14.28.14.24.32-.77.12-1.54.27-2.32.29-.58.01-1.18-.03-1.7-.31-.15-.08-.27-.19-.39-.29-.26,0-.52,0-.77-.08-.48-.13-.85-.47-1.26-.72-.03-.03-.09-.04-.1-.08.12-.1.28-.16.44-.13.23.03.42.17.62.27.04-.12.06-.26.11-.37.06-.11.19-.14.3-.17-.36-.23-.75-.41-1.11-.62-.26-.16-.57-.21-.81-.4-.15-.11-.24-.31-.21-.49.22-.17.51-.08.76-.1-.02-.2-.22-.28-.39-.31-.33-.06-.71-.06-.98.16-.39.31-.62.77-.86,1.2-.22.4-.43.83-.8,1.11.03.58-.1,1.16-.37,1.67-.29.57-.71,1.09-.91,1.7-.04.07.04.14.07.19.2.26.47.49.57.82-.38.18-.81.04-1.2-.06-.4-.12-.8-.2-1.22-.17-.41.02-.9.1-1.24-.21.35-.19.76-.05,1.13-.18.07-.03.12-.08.17-.13-.37-.1-.78-.15-1.1-.38-.17-.12-.26-.3-.32-.49-.27.4-.37.91-.32,1.39-.17-.02-.34,0-.49.08-.12.05-.25.13-.38.09-.13-.04-.12-.2-.13-.31.02-.44.22-.88.58-1.14.03-.17-.11-.28-.19-.41-.07-.11-.04-.24-.02-.35-.41-.22-.81-.5-1.29-.54,0-.2-.03-.42.1-.59.07-.11.21-.14.33-.15-.08-.09-.21-.2-.15-.34.09-.2.2-.39.16-.62.14-.08.29-.15.46-.12.07-.13-.05-.29-.03-.44,0-.08.03-.17.11-.2.25,0,.49.08.7.19.31.17.57.42.88.58.28.15.6.21.91.18.04,0,.12-.01.11-.07-.02-.11-.11-.2-.15-.3.05-.02.09-.05.14-.07-.19-.3-.58-.29-.86-.43-.36-.26-.52-.7-.73-1.07-.17-.33-.41-.66-.78-.78-.2-.06-.41-.11-.62-.05,0,.21.18.43.06.64-.39.59-.79,1.18-1.32,1.66-.31.29-.66.51-1.04.69.24.79.53,1.56.75,2.36.21.75.3,1.54.59,2.27.16.39.41.78.8.96.27-.04.56,0,.78.16.15.09.26.23.38.35.1.1.24.11.35.19.05.04.01.1,0,.15-.08,0-.17.03-.25,0-.09-.06-.16-.14-.24-.21-.02.02-.04.04-.06.06.12.39.59.57.64,1-.29-.22-.59-.42-.86-.66-.19-.17-.33-.38-.43-.62-.08.09-.14.22-.09.35.09.25.34.38.52.54-.12.07-.26.02-.34-.08-.15-.15-.26-.32-.39-.49-.07.08-.15.22-.28.17-.17-.07-.29-.21-.47-.27-.11-.04-.23-.03-.34-.01-.22-.52-.49-1.02-.79-1.49-.05-.08-.12-.14-.19-.2.07-.08.15-.15.24-.21-.1-.29-.41-.42-.56-.67,0-.08.04-.18-.02-.25-.09-.11-.23-.19-.29-.33-.04-.08-.03-.17,0-.26.24.11.49.24.77.21,0-.08-.01-.16-.06-.22-.14-.19-.34-.32-.47-.51-.34-.48-.61-1.06-.57-1.67,0-.21.07-.42.12-.63-.03-.12-.18-.13-.27-.16-.07-.02-.17-.07-.15-.16.13-.43.46-.75.64-1.15.11,0,.21,0,.32,0,.48-.38.84-.91,1.36-1.25.18-.12.39-.2.59-.27-.08-.31-.48-.38-.54-.7-.03-.31.05-.62.21-.89.22-.37.58-.61.89-.9.04-.04.08-.08.14-.08.42-.02.85.01,1.27.1.07,0,.12.08.17.12.37.38.84.66,1.36.78.3.07.61.09.92.08-.17-.2-.41-.31-.63-.44.37-.04.72.16,1.01.36.17.12.32.25.46.4.85-.03,1.7-.09,2.55,0,.3.04.61.09.87.26.33.21.64.47.86.79.1.13.14.31.29.4.12.08.22.22.18.37.48.37,1.05.65,1.42,1.14.25.32.38.72.4,1.12.5-.1.92-.43,1.42-.52.42-.08.84.03,1.23.16.29.09.57.23.87.26.81.09,1.63,0,2.43-.11.09-.02.16.04.23.08.26.2.42.5.59.76.18.3.48.58.45.96Z"/>
      <path class="cls-1" d="m81.93,99.33s.79,1.01-.03,1.92l.03-1.92Z"/>
      <path class="cls-1" d="m73.68,95.84s.9,1.38,2.87,1.95-.88-.78-.88-.78l-1.99-1.18Z"/>
      <path class="cls-1" d="m74.5,92.78s1.66.86,3.53,3.21l-.13.41-3.4-3.61Z"/>
      <path class="cls-1" d="m78.83,108.35c-.08.35-.24.74-.52,1.18-.49.03-1.79.09-2.27.12,2.93.8,2.74-1.09,2.8-1.3Z"/>
      <path class="cls-1" d="m78.84,108.3s0,0,0,0c0,0,0,0,0,0Z"/>
      <path class="cls-1" d="m65.25,104.33s2.32,2.5,6.79,4.03l-.42-.68.1-1.04-.34-.7-.23-.75-.38-.62-2.5-.67-.68.78-2.34-.34Z"/>
    </g>
    <g>
      <path class="cls-12" d="m84.3,81.13h-2.95c-.62,0-1.05-.33-1.14-.87l-.59-3.43h0s0-.03-.01-.06c.99-1.74,1.44-2.49,1.63-2.8.03-.06.06-.1.08-.13.37-.56.7-.61.73-.62.03,0,.07,0,.1-.01.09.12.15.26.18.41l.59,3.19h0c.25,1.52.52,3.05.62,3.46.22.85.73.86.75.86Z"/>
      <path class="cls-4" d="m73.28,72.79s-.55.01-1.08.84c-.1.15-.29.48-.53.91-.24.43-.54.96-.85,1.52-.16.29-.33.59-.49.9h0l-.69,1.24h0s-1.15,2.09-1.15,2.09c-.29.53-.85.84-1.49.84h-3.03s.55-.01,1.08-.84c.26-.39,1.07-1.87,1.88-3.33l1.84-3.33c.29-.53.85-.84,1.48-.84h3.03Z"/>
      <path class="cls-4" d="m82.08,72.79s-.55.01-1.08.84c-.1.16-.31.52-.58.99-.26.47-.58,1.05-.92,1.65-.13.23-.25.46-.38.69l-.75,1.35-1.09,1.98c-.29.53-.85.84-1.48.84h-3.03s.55-.01,1.08-.84c.1-.15.29-.48.52-.9.24-.43.53-.95.84-1.51.17-.3.34-.62.51-.93h0l.46-.84,1.38-2.49c.29-.53.85-.84,1.48-.84h3.03Z"/>
      <g>
        <path class="cls-12" d="m74.45,78.66c-.43.78-.79,1.4-.94,1.63-.45.7-.89.81-1.03.83-.27-.01-.5-.09-.67-.22-.21-.15-.34-.37-.39-.65l-.59-3.43h0s0-.03-.01-.06c.99-1.74,1.44-2.5,1.63-2.81.03-.06.06-.1.08-.13.37-.56.7-.61.73-.62.03,0,.07,0,.1-.01.09.12.15.26.18.41l.59,3.19h0c.1.65.22,1.29.31,1.85Z"/>
        <g>
          <path class="cls-1" d="m75.46,81.13h.05s-.01,0-.02,0c0,0-.02,0-.02,0Z"/>
          <path class="cls-1" d="m75.48,81.13s-.02,0-.03,0h.05s-.01,0-.02,0h0Z"/>
        </g>
      </g>
    </g>
  </g>
  <g>
    <path class="cls-2" d="m59.07,10.61h-7.36v-.28c0-1.03.12-1.76.35-2.18.24-.43.81-.64,1.72-.64l1.49-.09c.3,0,.57,0,.83-.02.25-.02.61-.06,1.06-.13.46-.07.75-.2.88-.38.13-.18.2-.49.2-.92,0-.49-.1-.83-.3-1.02-.2-.2-.55-.29-1.05-.29l-1.64-.05-1.28.04c-.52,0-.88.1-1.09.29-.21.2-.31.58-.31,1.15v.34h-.79c0-.84.1-1.44.29-1.79.2-.35.56-.55,1.09-.61.53-.06.92-.1,1.16-.11.24-.01.55-.02.93-.02h.78c1.08,0,1.86.11,2.33.33.47.22.71.8.71,1.73,0,.72-.15,1.25-.46,1.57-.31.32-.83.48-1.57.48l-1.71.12-1.41.11c-.63,0-1.02.11-1.18.34-.16.23-.24.67-.24,1.33h6.56v.7Z"/>
    <path class="cls-2" d="m65.35,3.94l1.89-.05,2.16.05c.45,0,.81.15,1.07.44.26.3.42.64.47,1.03.05.39.09.74.1,1.05.01.31.02.65.02,1.01,0,.83-.04,1.44-.12,1.85-.08.41-.29.74-.64.98-.35.24-.91.36-1.7.36h-3.05c-.56,0-1.03-.1-1.4-.29-.38-.2-.6-.49-.67-.87-.07-.39-.12-.75-.14-1.08-.02-.34-.04-.68-.04-1.04,0-.48,0-.85.02-1.12,0-.27.05-.61.13-1.02.08-.42.27-.74.58-.96.31-.23.75-.34,1.31-.34Zm.39,6.02l1.42.04,1.48-.04c.49,0,.85-.06,1.09-.18s.37-.35.41-.68c.04-.33.07-.65.08-.96.01-.31.02-.61.02-.89,0-.35,0-.69-.02-1.02-.02-.33-.06-.63-.13-.89-.07-.26-.22-.44-.45-.54s-.54-.14-.93-.14l-1.47-.05-1.45.05c-.51,0-.89.06-1.14.18-.25.12-.39.36-.42.71-.04.35-.06.68-.07.97s-.02.58-.02.85l.08,1.5c.04.43.19.72.44.87s.61.22,1.09.22Z"/>
    <path class="cls-2" d="m82.81,10.61h-7.36v-.28c0-1.03.12-1.76.35-2.18.24-.43.81-.64,1.72-.64l1.49-.09c.3,0,.57,0,.83-.02.25-.02.61-.06,1.06-.13.46-.07.75-.2.88-.38.13-.18.2-.49.2-.92,0-.49-.1-.83-.3-1.02-.2-.2-.55-.29-1.05-.29l-1.64-.05-1.28.04c-.52,0-.88.1-1.09.29-.21.2-.31.58-.31,1.15v.34h-.79c0-.84.1-1.44.29-1.79.2-.35.56-.55,1.09-.61.53-.06.92-.1,1.16-.11.24-.01.55-.02.93-.02h.78c1.08,0,1.86.11,2.33.33.47.22.71.8.71,1.73,0,.72-.15,1.25-.46,1.57-.31.32-.83.48-1.57.48l-1.71.12-1.41.11c-.63,0-1.02.11-1.18.34-.16.23-.24.67-.24,1.33h6.56v.7Z"/>
    <path class="cls-2" d="m89.39,6.12c.26-.02.52-.03.79-.03h1.48c.82,0,1.5.08,2.04.25.54.17.83.43.88.8.04.37.07.63.08.78,0,.15,0,.31,0,.49,0,.81-.14,1.39-.43,1.72-.29.33-.84.5-1.66.5l-1.05.06-2.13-.06c-.76,0-1.31-.12-1.66-.36-.35-.24-.53-.72-.53-1.45v-.23h.77c0,.46.08.79.25.98s.48.31.93.35l1.75.04,1.73-.04c.47,0,.79-.1.96-.31s.26-.53.26-.97c0-.76-.08-1.26-.23-1.48-.15-.22-.6-.33-1.35-.33l-2.47-.06c-.49,0-.87.03-1.14.09-.27.06-.44.24-.53.54h-.82l.09-3.46h7.05v.7h-6.32l-.05,2.19c.06-.03.32-.41.53-.52.21-.11.48-.18.79-.2Z"/>
  </g>
  <g>
    <path class="cls-6" d="m141.08,40.91c-1.9-7.13-3.89-14.24-5.92-21.15l-.47-1.59-1.66-.09c-2.85-.16-5.7-.31-8.55-.44l-1.81-.09-.55,1.73c-1.79,5.67-3.63,11.34-5.49,16.89h-.06c.09-.62.16-1.27.19-1.95v-.05s-.04-7-.04-7c.03,0,2.63.19,2.63.19l-.06-9.95-2.24-.09c-2.36-.09-4.74-.18-7.12-.26.92-.87,1.84-1.74,2.73-2.6l4.19-4.05h-13.94l-.71.92c-1.25,1.62-2.54,3.28-3.86,4.95l-.35.45c-2.67-.06-5.35-.11-8.02-.15l-2.4-.04v2.05c-.85-.65-1.82-1.18-2.88-1.52-1.6-.57-3.2-.58-4.62-.6h-.25c-1.87-.01-3.74-.02-5.61-.02-2.4,0-4.81,0-7.21.02h-2.33s-.02,9.27-.02,9.27c0,0,2.56-.03,2.64-.03v7.38c-.32,0-.69.02-1.03.03-.34,0-.71.02-1.01.02-2.03-5.36-3.87-10.29-5.62-15.03l-.58-1.57-1.67.03c-2.86.05-5.72.1-8.58.17l-1.61.04-.55,1.51c-2.06,5.69-4.05,11.28-5.91,16.66-.4.05-.85.11-1.2.15-.2.02-.41.05-.59.07-.24-2.81-.48-5.62-.71-8.44.08,0,2.42-.15,2.42-.15l.06-9.62-2.45.08c-3.82.13-7.66.28-11.41.45l-1.73.08-.44,1.68c-.47,1.8-.94,3.62-1.41,5.45-.42-1.69-.84-3.38-1.25-5.07l-.46-1.89-1.94.1c-3.78.2-7.61.42-11.38.65l-2.21.14v10.89s2.4-.26,2.4-.26c-.3,3.86-.59,7.71-.88,11.57-.29.07-2.67.64-2.67.64v11.09l3-.87c3.86-1.11,7.78-2.15,11.66-3.07l1.8-.43.02-4.61c1.23-.24,2.48-.48,3.72-.7l-.03,4.48,2.83-.56c3.89-.77,7.86-1.46,11.79-2.05l.61-.09.6-.08c3.7-.52,7.45-.96,11.16-1.32l1.2-.12,1.17-.1c3.72-.3,7.49-.53,11.22-.67l.7-.03.7-.02c2.38-.07,4.8-.1,7.18-.1,1.84,0,3.7.02,5.54.06l2.41.05v-6.41c.8-.05,1.65-.16,2.5-.38,2.43-.66,4.41-2.33,5.58-4.5v1.19c.03,3.12,1.11,5.87,3.04,7.76,2.94,2.88,7.06,3.98,9.99,4.4.88.13,1.76.19,2.61.19,3.3,0,6.05-.93,7.96-2.7l.05-.05c.05-.05.1-.11.15-.16l.03,3.93,1.92.35c3.68.67,7.41,1.43,11.07,2.26l1.17.27,1.16.28c3.67.89,7.37,1.87,11.02,2.92l3,.87v-11.09s-2.16-.52-2.32-.56Zm-36.54-7.04c-.08.02-.24.05-.46.05-.1,0-.2,0-.29-.01-.54-.05-1-.27-1.2-.49-.07-.16-.13-.41-.13-.69l-.04-6.41s1.01.05,1.01.05c0,0,1,.05,1.11.06l.05,6.94c0,.28-.02.44-.04.52Z"/>
    <path class="cls-10" d="m128.55,31.94c.03-.13.06-.26.09-.39.03.14.06.28.09.41-.06,0-.12-.02-.18-.03Z"/>
    <path class="cls-10" d="m6.25,42.55s1.97-.47,2.59-.62c.36-4.74.71-9.49,1.08-14.23-.48.05-2.53.28-2.53.28v-8.05s.92-.06.92-.06c3.76-.23,7.59-.45,11.37-.65l.8-.04.19.78c.86,3.49,1.73,6.97,2.58,10.37.9-3.58,1.83-7.18,2.75-10.73l.18-.69.72-.03c3.76-.17,7.6-.32,11.39-.45l1.01-.03-.05,6.9s-2,.12-2.55.15c.32,3.76.63,7.52.95,11.28.52-.07,2.66-.33,2.66-.33l-.05,6.88-.82.12c-3.94.59-7.93,1.28-11.85,2.06l-1.17.23.03-4.45c-2.04.36-4.11.75-6.13,1.15l-.35.07-.02,4.66-.74.18c-3.9.93-7.85,1.97-11.72,3.09l-1.24.36v-8.17Zm21.6-4.4c.22-.04.42-.07.63-.1"/>
    <path class="cls-1" d="m7.22,43.32c.84-.2,1.69-.4,2.53-.6.4-5.37.81-10.74,1.22-16.11-.87.09-1.74.19-2.62.28,0-2.02,0-4.04,0-6.05,3.79-.24,7.57-.45,11.36-.65.91,3.71,1.84,7.42,2.78,11.13.19.77.32,1.57.51,2.3.08.33.17.65.2.96.03,0,.04,0,.07-.01.04-.32.12-.66.21-1.02.2-.78.37-1.62.56-2.43.95-3.77,1.91-7.53,2.9-11.29,3.79-.17,7.59-.32,11.39-.45-.01,1.66-.02,3.31-.03,4.97-.88.05-1.75.11-2.63.16.37,4.43.75,8.86,1.12,13.29.85-.11,1.71-.22,2.56-.33-.01,1.65-.02,3.29-.03,4.94-3.98.6-7.95,1.28-11.9,2.06.01-1.76.02-3.52.03-5.29.81-.14,1.22-.2,2.04-.33-.1-2.36-.2-4.72-.3-7.08-.03-.57-.03-1.32.08-1.98.04-.44.07-.66.11-1.1-.06,0-.08,0-.14.01-.07.35-.14.69-.25,1.04-.2.78-.3,1.17-.5,1.96-.74,2.84-1.47,5.68-2.19,8.52-2.06.37-4.11.75-6.17,1.16-.71-2.77-1.41-5.54-2.1-8.31-.2-.8-.31-1.21-.51-2.02-.1-.35-.17-.71-.2-1.04-.06,0-.08.01-.14.02.04.47.06.7.1,1.16.04.7.06,1.42.03,2.13-.11,2.59-.23,5.19-.34,7.78.81-.17,1.22-.25,2.03-.41,0,1.86-.02,3.73-.02,5.59-3.95.94-7.87,1.98-11.77,3.1v-6.11Z"/>
    <path class="cls-10" d="m39.61,36.47s1.71-.2,2.12-.25c1.94-5.62,4.03-11.5,6.19-17.47l.23-.63.67-.02c2.86-.07,5.71-.12,8.57-.17h.69s.24.64.24.64c1.84,4.99,3.8,10.22,5.98,15.97.39-.01,2.23-.07,2.23-.07l-.02,6.48-.93.04c-3.75.14-7.54.37-11.28.68l-1.06.09.03-6.62s1.46-.1,1.7-.12v-.04c-1.27.08-2.54.17-3.8.26v.06c.17-.01,1.65-.13,1.65-.13l-.04,6.63-.88.08c-3.73.36-7.5.81-11.22,1.33l-1.12.16.05-6.9Zm13.21-7.61c.17,0,.34-.02.51-.03-.08-.31-.16-.61-.24-.92l-.26.94Z"/>
    <path class="cls-1" d="m40.58,37.33c.75-.09,1.12-.13,1.87-.22,2.08-6.03,4.21-12.04,6.39-18.03,2.85-.07,5.71-.12,8.56-.17,2.05,5.55,4.13,11.09,6.23,16.63.77-.03,1.15-.04,1.92-.06,0,1.51,0,3.03-.01,4.54-3.78.14-7.56.37-11.33.68,0-1.55.02-3.1.02-4.65.78-.05,1.17-.08,1.95-.13-.19-.78-.29-1.17-.48-1.96-1.77.11-3.55.23-5.32.36-.2.82-.3,1.24-.5,2.06.78-.07,1.17-.1,1.95-.16l-.03,4.69c-3.76.36-7.51.81-11.26,1.33.01-1.64.02-3.27.03-4.91Zm13.99-7.59c-.26-.99-.52-1.97-.78-2.96-.24-.81-.33-1.54-.44-2.04-.06-.3-.14-.57-.17-.84-.07,0-.1,0-.17,0-.06.34-.09.51-.14.86-.12.7-.29,1.41-.5,2.09-.28,1.02-.57,2.04-.85,3.06,1.02-.06,2.04-.11,3.06-.17Z"/>
    <path class="cls-10" d="m65.99,34.49s2.08-.05,2.65-.06v-10.13c-.54,0-2.63.03-2.63.03v-6.49s.98,0,.98,0c2.39-.01,4.79-.02,7.18-.02,1.87,0,3.75,0,5.62.01h.25c1.32.01,2.82.03,4.21.53,3.42,1.08,5.75,4.3,5.77,8.02.01,3.69-2.34,6.92-5.73,7.84-1.19.32-2.43.37-3.53.38v6.34s-.99-.02-.99-.02c-1.85-.04-3.73-.06-5.58-.06-2.39,0-4.82.03-7.21.1l-1,.03v-6.49Zm13-6.77c.68,0,1-.11,1.32-.3.37-.23.43-.84.43-1.19,0-.43-.07-1-.42-1.22l-.05-.03c-.28-.2-.68-.3-1.28-.3-.36,0-.63,0-.89,0v3.04c.24,0,.89,0,.89,0Z"/>
    <path class="cls-1" d="m66.97,35.44c.88-.02,1.76-.04,2.65-.05,0-4.02.01-8.05.02-12.07-.88,0-1.76.02-2.64.03,0-1.51,0-3.02,0-4.53,4.27-.03,8.53-.03,12.8,0,1.37.01,2.82,0,4.13.47,3.09.97,5.11,3.89,5.13,7.1.01,3.13-1.94,6.06-5.02,6.9-1.3.34-2.67.35-4,.34-.96-.02-1.93-.03-2.89-.04,0,.72,0,1.07,0,1.79.88.01,1.77.02,2.65.04,0,1.51,0,3.02,0,4.53-4.28-.09-8.56-.08-12.84.04v-4.53Zm11.94-6.75c.87.01,1.39-.13,1.91-.44.7-.43.9-1.27.9-2.02,0-.75-.18-1.6-.87-2.04-.45-.33-1.04-.48-1.84-.49-.75,0-1.13,0-1.88-.01,0,1.66,0,3.33,0,4.99.71,0,1.06,0,1.77.02Z"/>
    <path class="cls-10" d="m105.87,43.21c-.79,0-1.61-.06-2.42-.17-2.73-.39-6.55-1.4-9.22-4.02-1.67-1.63-2.59-4.04-2.62-6.79l-.04-7.7c-.55-.02-2.6-.07-2.6-.07l-.03-6.54.99.02c2.88.04,5.79.1,8.69.17l.78-.98c1.31-1.66,2.62-3.33,3.87-4.96l.29-.38h9.85l-1.74,1.67c-1.67,1.61-3.4,3.24-5.16,4.86,3.47.11,6.98.23,10.45.37l.93.04.05,7.15s-2.1-.15-2.63-.18l.06,8.43c-.11,3.03-.91,5.22-2.46,6.74-2.11,1.95-4.99,2.35-7.05,2.35Zm-4.46-9.03c.44.59,1.32,1.03,2.25,1.11.13.01.27.02.41.02.53,0,1.22-.1,1.56-.55.17-.22.33-.55.32-1.4l-.05-8.24c-.55-.03-2.56-.13-2.56-.13v-.02l-.78-.02c-.51-.02-1.03-.05-1.54-.07l.05,7.86c0,.72.23,1.22.35,1.44Z"/>
    <path class="cls-1" d="m92.55,23.58c-.87-.03-1.74-.05-2.6-.07,0-1.53-.01-3.07-.02-4.6,4.22.07,8.43.15,12.65.27.01,1.6.02,3.2.03,4.8-.86-.04-1.71-.08-2.57-.12.02,2.96.04,5.93.05,8.89,0,.77.22,1.47.5,1.96.66.94,1.88,1.46,2.99,1.55.99.08,2.19-.05,2.84-.93.38-.5.51-1.12.51-1.98-.02-3.05-.04-6.1-.06-9.15-.85-.05-1.71-.09-2.56-.13-.01-1.61-.02-3.23-.03-4.84,4.22.12,8.45.27,12.67.44.01,1.72.02,3.44.03,5.17-.88-.06-1.75-.12-2.63-.18.02,3.16.04,6.32.06,9.48-.08,2.18-.55,4.45-2.17,6.04-2.25,2.08-5.79,2.31-8.65,1.91-3.09-.44-6.4-1.52-8.67-3.75-1.61-1.57-2.31-3.88-2.33-6.1-.01-2.88-.03-5.76-.04-8.64Zm11.51-10.84h6.96c-1.78,1.72-3.58,3.41-5.4,5.09-1.81-.04-3.63-.08-5.44-.12,1.31-1.65,2.6-3.31,3.88-4.97Z"/>
    <path class="cls-10" d="m140.78,50.36c-3.66-1.05-7.38-2.04-11.07-2.93l-.74-.18-.03-7.57s1.52.3,1.67.33l-.09-.45c-1.22-.22-2.45-.44-3.67-.66l-.08.36c.29.05,1.74.33,1.74.33l.04,7.55-1.19-.27c-3.68-.83-7.42-1.6-11.13-2.27l-.79-.14-.05-7.09s1.86.28,2.19.33c1.99-5.89,3.96-11.95,5.87-18.01l.23-.72.75.04c2.85.14,5.7.29,8.54.44l.69.04.19.66c2.1,7.15,4.16,14.52,6.12,21.91.43.1,2.06.49,2.06.49v8.17l-1.24-.36Zm-11.84-18.2c-.1-.45-.2-.9-.29-1.35-.1.42-.2.84-.3,1.26.2.03.39.06.59.08Z"/>
    <path class="cls-1" d="m116.36,38.5c.75.11,1.12.17,1.87.29,2.11-6.25,4.16-12.52,6.14-18.8,2.85.14,5.69.28,8.54.44,2.19,7.45,4.28,14.94,6.27,22.45.75.18,1.13.27,1.88.45v6.11c-3.68-1.06-7.39-2.04-11.11-2.94,0-1.87-.01-3.74-.02-5.62.77.15,1.15.23,1.92.39-.16-.84-.33-1.69-.49-2.53-1.75-.33-3.51-.64-5.26-.94-.16.75-.31,1.5-.47,2.26.77.14,1.16.21,1.93.36,0,1.84.02,3.68.03,5.52-3.71-.84-7.43-1.6-11.17-2.28-.01-1.71-.02-3.43-.03-5.14Zm13.83-5.18c-.27-1.24-.54-2.48-.81-3.71-.18-.84-.32-1.69-.46-2.52-.06-.36-.14-.7-.18-1.03-.07,0-.1,0-.17-.02-.05.4-.08.6-.13,1-.11.81-.29,1.6-.47,2.4-.27,1.15-.54,2.3-.81,3.45,1.01.14,2.02.28,3.03.43Z"/>
  </g>
  <path class="cls-7" d="m17.74,67.29l3.05-14.74c33.29-8.53,73.4-8.53,106.69,0l3.05,14.74c-33.5-10.21-79.28-10.21-112.78,0h0Z"/>
  <text class="cls-3" transform="translate(31.11 61.22) rotate(-9.6)"><tspan x="0" y="0">M</tspan></text>
  <text class="cls-3" transform="translate(47.29 58.64) rotate(-5.47)"><tspan x="0" y="0">C</tspan></text>
  <text class="cls-3" transform="translate(60.14 57.43) rotate(-1.71)"><tspan x="0" y="0">M</tspan></text>
  <text class="cls-3" transform="translate(76.6 57.12) rotate(.97)"><tspan x="0" y="0"> </tspan></text>
  <text class="cls-3" transform="translate(81.64 57.17) rotate(3.22)"><tspan x="0" y="0">C</tspan></text>
  <text class="cls-3" transform="translate(94.54 57.95) rotate(6.65)"><tspan x="0" y="0">U</tspan></text>
  <text class="cls-3" transform="translate(107.55 59.54) rotate(10.35)"><tspan x="0" y="0">P</tspan></text>
</svg>