<?xml version="1.0" encoding="UTF-8"?>
<svg id="Layer_1" data-name="Layer 1" xmlns="http://www.w3.org/2000/svg" xmlns:xlink="http://www.w3.org/1999/xlink" viewBox="0 0 152.33 170.86">
  <defs>
    <style>
      .cls-1, .cls-2, .cls-3 {
        fill: #fff;
      }

      .cls-2 {
        stroke-width: .7px;
      }

      .cls-2, .cls-3, .cls-4 {
        stroke: #fff;
        stroke-miterlimit: 10;
      }

      .cls-3 {
        font-family: EurostileExtended-Roman, 'Eurostile Extended';
        font-size: 10.31px;
        stroke-width: .75px;
      }

      .cls-5 {
        fill: #eb2127;
      }

      .cls-6 {
        fill: #adb0b3;
      }

      .cls-7 {
        fill: #e92429;
      }

      .cls-7, .cls-8 {
        fill-rule: evenodd;
      }

      .cls-9 {
        clip-path: url(#clippath);
      }

      .cls-10, .cls-8 {
        fill: #002554;
      }

      .cls-11 {
        fill: none;
      }

      .cls-12 {
        fill: #b1b1b1;
      }

      .cls-4 {
        fill: #1a375d;
        stroke-width: .25px;
      }
    </style>
    <clipPath id="clippath">
      <polygon class="cls-11" points="118.14 33.48 118.14 109.26 76.16 136.42 34.19 109.26 34.19 33.48 118.14 33.48"/>
    </clipPath>
  </defs>
  <polygon class="cls-10" points="27.21 113.81 27.21 25.37 125.12 25.37 125.12 113.81 76.16 145.49 27.21 113.81"/>
  <polygon class="cls-1" points="120.69 41.09 120.69 110.94 76.16 139.75 31.64 110.94 31.64 41.09 120.69 41.09"/>
  <g class="cls-9">
    <g>
      <rect class="cls-10" x="33.13" y="43.62" width="86.06" height="93.22"/>
      <g>
        <rect class="cls-5" x="50.68" y="40.96" width="15.61" height="95.88"/>
        <rect class="cls-5" x="86.05" y="40.96" width="15.6" height="95.88"/>
      </g>
    </g>
  </g>
  <path class="cls-8" d="m140.13,58.62c-1.52-5.62-3.09-11.21-4.7-16.66l-1.3-4.41-17.65-.25-.71-6.94h-15.83l-1.96,2.54c-.78,1.01-1.59,2.05-2.41,3.11-1.69-.03-3.39-.06-5.07-.09l-6.64-.1v.1c-.86-.08-1.65-.09-2.32-.09h-.24c-1.69-.01-3.39-.01-5.08-.01-2.18,0-4.36,0-6.53.02l-4.1.03h0s-.35,0-.35,0h-2.01v.03l-2.26.04c-2.59.04-5.18.09-7.77.15l-2.77.07v-.02l-6.79.23c-3.48.12-6.95.26-10.34.41l-1.18.05v-.02s-2.15.11-2.15.11l-1.47.07h0s-1.77.1-1.77.1c-3.43.18-6.9.38-10.31.59l-6.11.38v18.85s1.78-.19,1.78-.19c-.05.66-.1,1.32-.15,1.98l-2.66.64v19.3l8.32-2.4c2.09-.6,4.21-1.17,6.32-1.72l-3.5,16.91,5.94-1.81c14.49-4.42,31.71-6.75,49.81-6.75s35.32,2.33,49.81,6.75l5.94,1.81-3.5-16.91c2.12.55,4.23,1.11,6.32,1.71l8.32,2.4v-19.3l-2.92-.7Z"/>
  <g>
    <path class="cls-1" d="m74.65,130.6c-12.32-6.53-19.67-17.77-19.67-30.06v-14.57h42.38v14.57c0,12.3-7.35,23.54-19.67,30.06l-1.52.8-1.52-.8Z"/>
    <path class="cls-10" d="m75.34,129.3c-11.83-6.27-18.89-17.02-18.89-28.76v-13.09h39.43v13.09c0,11.74-7.06,22.5-18.89,28.76l-.83.44-.83-.44Z"/>
    <path class="cls-1" d="m94.11,89.21v11.55c-.04,5.43-1.73,10.67-4.78,15.29-3.09,4.68-7.58,8.73-13.16,11.69-11.11-5.89-17.86-16.05-17.95-26.98v-11.55h35.9Z"/>
    <path class="cls-5" d="m94.11,100.76c-.04,5.43-1.73,10.67-4.78,15.29-3.09,4.68-7.58,8.73-13.16,11.69-11.11-5.89-17.86-16.05-17.95-26.98h35.9Z"/>
    <g>
      <path class="cls-1" d="m81.43,119.4s.02,0,.03-.02c0,0-.02.01-.03.02Z"/>
      <path class="cls-1" d="m81.21,112.13h-.41c.14-.01.27-.02.41,0Z"/>
      <path class="cls-1" d="m70.87,119.99c-.07.02-.15.02-.23.03l.23-.03Z"/>
      <path class="cls-1" d="m67.63,118.73l.06.23s.78,1.09,1.28,1.06.33-.02.33-.02c0,0,.17-.58.13-.6s-1.08-.62-1.11-.62-.69-.06-.69-.06Z"/>
      <path class="cls-1" d="m86.8,114.39c.05.24,0,.5-.15.7-.02.02-.03.03-.04.05.19-.45.03-.94,0-1.05,0,0,.11.12.22.3h-.03Z"/>
      <path class="cls-1" d="m81.43,119.4s.02,0,.03-.02c0,0-.02.01-.03.02Z"/>
      <path class="cls-1" d="m86.83,114.39c-.11-.18-.22-.3-.22-.3h0s0-.04-.01-.05h0s-.02-.08-.02-.08c-.18-.5-.62-.85-1.01-1.21-.18-.18-.46-.21-.7-.23-.78-.03-1.56.11-2.33.01-.44-.06-.82-.3-1.25-.4-.02,0-.04,0-.06-.01-.14-.02-.27-.01-.41,0,0,0-.02,0-.03,0,0,0,0,0,0,0h-.08s-.94-.22-.94-.22c-.05,0-.09-.01-.14-.03h0c-.11-.04-.21-.12-.29-.21l-1.07-1.08c-.16-.14-.37-.26-.48-.44h0s-.79-.78-.79-.78c0,0,0,0,0,0l-.05-.05-.02-.02c-.07-.04-.15-.08-.22-.12,0,0,0,0,0,0-.06-.03-.12-.07-.18-.11,0,0,0,0,0,0-.11-.06-.23-.13-.35-.17-.18-.07-.38-.08-.57-.07.32-.2.53-.54.87-.72.18-.1.39-.14.6-.14.2-.21.16-.52.25-.78.15-.14.36-.2.55-.28.07-.19.17-.37.24-.56.09-.21.31-.32.46-.48.23-.21.35-.55.27-.85-.07-.28-.21-.55-.36-.8-.11-.17-.22-.35-.37-.5-.28-.27-.72-.22-1-.49-.16-.15-.22-.4-.44-.49-.15-.04-.31-.04-.46-.07-.34-.06-.71-.07-1.03.09-.28.13-.44.4-.67.59-.1.08-.25.08-.35.18-.13.12-.25.26-.37.4-.07.08-.13.16-.15.26-.12.38,0,.78-.1,1.17-.04.17-.23.23-.32.37-.1.13-.1.32-.23.42-.24.2-.54.29-.82.4-.21.08-.4.19-.61.24-.88.23-1.77.42-2.64.66-.2.05-.37.16-.52.28,0,0,0,0,0,0-.31.25-.57.55-.85.84-.14.13-.18.34-.25.51-.02.05-.04.1-.06.15,0,0,0,0,0,0-.11.25-.26.48-.4.72-.12.22-.34.36-.48.57-.19.29-.28.62-.42.94-.09.23-.22.44-.37.64-.08.82-.08,1.56.48,3.16.44,1.28,1.13,2.63,1.62,3.57.02.03.03.06.05.1.02,0,.03,0,.05,0,.22-.01.45-.02.67-.01,0,.01.03.03.03.04.18.41.49.75.85,1.02.13-.14.31-.06.47-.04.14,0,.12-.16.14-.25.26.04.41.31.69.31.02,0,.04,0,.05,0,.07,0,.15,0,.23-.03h0c.07-.02.14-.05.19-.1.09-.1.1-.24.1-.36.66.19,1.34.22,2.01.38-.03.08-.12.11-.19.15-.14.06-.29.08-.44.09l-.31.53-.05.12c.66-.1,1.32-.18,1.99-.22.2-.22-.02-.53.13-.77.16-.28.42-.47.69-.63.36-.2.77-.36,1.19-.35.36.04.66.26.97.44.55.35,1.14.7,1.52,1.26.35.49.79.91,1.19,1.36.06.06.04.15.05.23.02.44-.05.92-.33,1.27-.25.32-.65.46-1.05.47-.39.01-.75-.15-1.09-.33-.39-.21-.76-.46-1.19-.59-.18-.06-.38-.05-.56-.06-.14.04-.11.23-.23.3-.4-.05-.78-.2-1.09-.46-.14-.11-.3-.23-.34-.42-.04-.12,0-.25.04-.36.65.12,1.28.36,1.95.38.2,0,.32.16.42.3.08.12.21.19.36.19.04-.1.09-.21.06-.32-.03-.12-.14-.19-.24-.24-.25-.11-.52-.14-.77-.25-.2-.09-.39-.19-.59-.25-.26-.08-.51-.19-.78-.2-.04-.08-.12-.11-.21-.1-.1-.2-.21-.41-.41-.54-.12-.08-.25-.12-.39-.14,0,.08,0,.16.03.24.08.21.35.31.36.56,0,.2-.05.41-.13.6-.04.09-.11.16-.19.2.22.29.47.59.73.77.64.45,3.14,1.06,3.6,1.17h0s.01,0,.02,0c.24-.01.47-.02.71-.03.37-.02.75-.04,1.12-.06.08,0,.14,0,.2-.01.04-.06.08-.12.11-.18.01-.02.03-.05.04-.07.03-.06.06-.12.09-.18.01-.02.02-.04.03-.06,0-.01.01-.02.02-.03,0-.01,0-.02.01-.03.02-.04.04-.09.05-.13,0-.02.02-.04.02-.06,0-.02.01-.04.02-.06,0-.02.01-.03.02-.05,0,0,0-.01,0-.02.01-.04.02-.08.03-.11,0-.02,0-.04.01-.06,0,0,0,0,0,0,0,0,0,0,0,0,0-.01,0-.02,0-.03,0,0,0,0,0,0,0,0,0,0,0,0,.07-.36.05-.66,0-.89,0-.03-.01-.05-.02-.08-.07-.25-.16-.38-.16-.38l.1-.27v-.49l.06-.17c.34-2,2.03-3.5,2.78-4.08.03-.13.05-.27.07-.41,0-.08,0-.16.03-.23.05-.49.04-.9.04-.9-.03-.06-.07-.12-.11-.18,0,0,0,0,0,0-.16-.23-.36-.44-.58-.61.14-.23.41-.32.66-.35.36-.05.72-.04,1.08-.02.1.29.31.53.41.82.04.11.06.22.07.34-.23.16-.53.03-.78.12-.17.04-.11.31.04.34.27.08.56-.02.84.02,0,.09,0,.18,0,.27,0,.01,0,.03,0,.04,0,.03,0,.06,0,.09,0,.01,0,.03,0,.04,0,.01,0,.03,0,.04,0,.03,0,.06-.01.08,0,.01,0,.03,0,.04-.02.09-.03.17-.05.26,0,.02,0,.04-.01.07-.03.13-.05.26-.07.39,0,.01,0,.03,0,.04,0,0,0,.01,0,.02h0c-.01.19-.08.39-.1.46h0c-.02.37-.2.7-.2,1.07.09,0,.19-.03.24-.11.07-.14.06-.31.06-.46.09-.02.18-.03.26-.07.06-.03.1-.1.16-.14.12-.03.27-.04.38.05.11.09.13.23.18.35.1-.1.15-.23.15-.37,0-.17-.04-.35.04-.5,0,0,0,0,0,0,0-.1.01-.2.01-.2-.05-.39-.08-.81.1-1.18.09-.21.39-.2.5-.41.05-.12.03-.26.09-.38.01-.02.02-.04.04-.05.15-.2.2-.46.15-.7h.03Zm-10.48-10.84c-.22-.13-.5-.11-.73-.22.2-.3.61-.24.9-.15.44.2.74.62,1.22.74-.05.05-.11.1-.18.09-.22,0-.4-.15-.6-.2,0,.06-.02.13.03.19.06.08.16.12.25.15.27.11.56.16.82.31.13.07.24.18.28.33-.36-.07-.69-.29-1.07-.29-.13,0-.26.04-.38.08-.25-.41-.84-.28-1.15-.62-.08-.09-.11-.22-.12-.34.17-.02.32.05.45.13.13.08.29.09.43.06-.02-.11-.06-.22-.16-.27Zm-1.51,2.12c.1,0,.16-.08.23-.14.09-.1.21-.16.35-.15.13.19.29.38.5.48.22.01.48-.06.58-.28.2.12.45.09.68.08.04-.04.02-.11.02-.16-.01-.13-.13-.21-.22-.29-.09-.08-.12-.21-.08-.32.05-.09.15-.11.24-.09.21.04.39.18.55.33.1.1.21.19.26.33.06.3-.13.6-.41.71-.18.09-.39.07-.59.08-.06.09.05.18.04.28-.1,0-.2,0-.3,0-.04.16-.08.34-.21.45-.1.08-.23.1-.35.13-.05.05.02.11.06.14.22.12.49,0,.72.11.11.05.12.19.09.29,0,.06-.07.05-.11.05-.15,0-.27-.16-.43-.12-.12,0-.07.18-.17.21-.09.02-.18,0-.27,0-.03.27-.27.45-.49.58-.35-.09-.59-.39-.69-.72-.22-.71-.14-1.47-.27-2.19.15-.04.2.12.28.21Zm.48,3.1c-.11,0-.23.01-.32-.06-.06-.05-.06-.14-.07-.21.14.08.29.15.39.28Zm-4.05-1.46c.26-.2.59-.27.91-.28.06,0,.14.01.18-.04.23-.21.54-.3.84-.34.28-.04.57-.03.85-.01-.02.26,0,.53.08.79.07.28.19.57.12.86-.11.03-.21.07-.33.07-.12,0-.23-.04-.34-.07-.05-.42.1-.87-.09-1.27-.1.1-.14.24-.17.37-.07.33-.03.67-.04,1-.21.08-.45.04-.65-.05-.26-.11-.49-.26-.75-.36-.22-.1-.48-.21-.58-.45-.02-.07-.06-.15-.03-.21Zm-.7,11.02c-.16.04-.32-.02-.44-.13-.03-.02-.04-.05,0-.08.15-.19.38-.28.61-.34.37-.09.75-.12,1.12-.22.62-.16,1.26-.34,1.91-.25.35.05.7.16,1.03.28-1.09.15-2.21.1-3.29.36-.33.07-.61.31-.94.38Zm4.39-4.92c-.05-.3.07-.62.25-.87.18-.23.38-.45.54-.7h0s0,0,.01.02c.03.05.06.1.11.14,0,0,0,0,.01,0,.18.13.33.29.5.42.11.09.25.12.37.19.09.05.06.2.17.23.2.08.41.17.57.31.18.17.45.17.65.31.04.03.08.06.12.1,0,0,0,0,0,0,.05.05.08.11.07.19,0,.22-.08.44-.25.58-.2.16-.43.25-.66.37h0s-2.43,1.71-2.43,1.71l-.61-.03-.49-.72.34-.61c.19-.32.38-.73.51-1.08h0s0,0,0,0c.1-.26.18-.48.22-.58,0,0,0,0,0,0Zm-.57,3.6c.07.03.07.11.07.18-.8-.14-1.61-.03-2.4.07-.87.12-1.75.23-2.62.12.77-.47,1.67-.79,2.58-.78.66,0,1.28.26,1.91.39.15.03.31-.05.46.02Zm-1.94,1.71c-.3.17-.53.49-.9.51-.02-.25.17-.45.37-.58.27-.16.53-.34.82-.46.54-.23,1.13-.31,1.71-.31-.22.28-.61.27-.92.34-.38.11-.73.31-1.07.5Zm2.79-.66c0,.06-.01.14-.08.17-.14.07-.31.03-.46.06-.3.07-.52.33-.83.35-.06,0-.12,0-.19,0,.05-.19.25-.26.42-.31.38-.09.74-.28,1.14-.27Zm-.34.79c-.41.17-.67.57-1.07.75-.11.05-.23.08-.34.1-.02-.14-.02-.29.05-.42.12-.24.36-.39.6-.5.5-.23,1.05-.32,1.59-.33,0-.1,0-.2,0-.3.07.02.16.02.2.09.08.12.07.26.08.39-.37.05-.76.06-1.11.21Zm7.9-3.88c.31.48.24,1.17-.18,1.56-.27.29-.64.49-.86.83-.07.09-.09.2-.12.3-.16.03-.33,0-.49.01-.45.53-.66,1.23-1.13,1.75-.13.15-.28.3-.4.45-.12.15-.16.36-.29.5-.07.08-.19.13-.3.09-.08-.12-.23-.23-.21-.4,0-.19.23-.26.29-.43.09-.26.07-.55.17-.82.04-.11.09-.22.08-.33-.04-.05-.1-.1-.15-.14.22-.46.59-.82.87-1.24.17-.12.4-.04.59-.1.09-.03.14-.12.17-.21.01-.05.04-.1,0-.14-.08-.12-.23-.17-.37-.17-.34,0-.64.19-.95.33-.06.13-.02.27-.06.4-.04.08-.15.06-.21.12-.13.12-.14.31-.26.44-.08.07-.19.09-.27.16-.08.1-.03.25-.13.33-.23.25-.49.52-.84.6-.37.08-.74-.08-1.05-.29-.28-.18-.44-.5-.51-.82-.34-.15-.72-.23-1-.48-.14-.12-.22-.3-.26-.48.99-.69,1.97-1.41,3.07-1.89,1.22-.55,2.57-.78,3.91-.72.33.2.66.45.87.78Zm2.82,2.69c-.13.05-.28-.03-.42,0-.05,0-.06.07-.08.1-.1,0-.19,0-.29,0,0-.3.34-.49.61-.44.15.03.21.21.17.35Zm-.1-.67c-.16,0-.31,0-.47,0,.1-.35.14-.72.29-1.05.07.07.12.16.14.26.07.26.04.53.04.8Zm.3-2.71c-.21.03-.32-.23-.52-.22-.08,0-.17,0-.25.04-.03.1-.02.2-.04.3-.05,0-.1-.01-.16-.02-.01-.44-.23-.84-.3-1.27-.38.04-.73.19-1.11.22-.16.02-.31,0-.46-.02.04.13.25.12.22.29-.7.11-1.39.24-2.1.26-.52.01-1.07-.03-1.53-.28-.13-.07-.24-.17-.35-.26-.23,0-.47,0-.7-.07-.43-.12-.76-.42-1.14-.65-.03-.02-.08-.04-.09-.08.11-.09.26-.14.4-.12.2.03.38.15.56.24.04-.11.05-.23.1-.34.06-.1.17-.12.27-.16-.32-.2-.67-.37-1.01-.56-.23-.14-.52-.19-.73-.36-.13-.1-.21-.28-.19-.44.2-.15.46-.07.69-.09-.02-.18-.2-.26-.35-.28-.3-.05-.64-.06-.89.14-.35.28-.56.69-.77,1.08-.2.36-.38.75-.72,1,.03.52-.09,1.05-.34,1.51-.27.52-.64.98-.82,1.54-.03.07.03.12.06.18.18.24.43.44.51.74-.35.16-.73.04-1.08-.05-.36-.1-.73-.18-1.1-.15-.37.02-.82.09-1.12-.19.31-.17.69-.04,1.02-.16.06-.02.11-.07.16-.12-.34-.09-.7-.13-.99-.35-.15-.1-.24-.27-.29-.44-.25.36-.33.82-.29,1.25-.15-.02-.31,0-.44.07-.11.04-.22.12-.35.08-.12-.03-.11-.18-.12-.28.01-.39.2-.79.53-1.03.03-.15-.1-.25-.17-.37-.06-.1-.04-.21-.02-.32-.37-.2-.73-.45-1.17-.48,0-.18-.02-.38.09-.53.06-.1.19-.12.3-.13-.07-.09-.19-.18-.14-.31.08-.18.18-.36.15-.56.13-.07.26-.13.41-.11.06-.12-.04-.26-.03-.39,0-.07.03-.15.1-.18.22,0,.44.07.63.17.28.15.51.38.8.53.25.13.54.19.82.17.03,0,.11,0,.1-.06-.01-.1-.1-.18-.14-.27.04-.02.08-.04.13-.06-.17-.27-.52-.27-.78-.39-.33-.23-.47-.63-.66-.97-.15-.3-.37-.59-.7-.71-.18-.05-.37-.1-.56-.05,0,.19.16.39.05.58-.35.53-.72,1.06-1.19,1.5-.28.26-.6.46-.94.62.21.71.48,1.41.68,2.13.19.68.27,1.39.54,2.05.14.35.37.7.72.87.24-.03.5,0,.71.15.13.09.23.21.34.32.09.09.22.1.32.17.04.04,0,.09,0,.14-.07,0-.15.03-.22,0-.08-.05-.15-.13-.22-.19-.02.02-.03.04-.05.06.11.36.53.52.58.9-.26-.2-.53-.38-.78-.6-.17-.15-.3-.35-.39-.56-.07.08-.13.2-.08.31.08.22.3.34.47.49-.11.06-.23.02-.31-.07-.13-.13-.24-.29-.35-.44-.07.07-.13.2-.25.15-.15-.06-.27-.19-.42-.24-.1-.04-.21-.02-.31-.01-.2-.47-.44-.92-.71-1.35-.04-.07-.11-.13-.17-.18.06-.08.14-.13.21-.19-.09-.26-.37-.38-.5-.61,0-.08.04-.16-.02-.23-.08-.1-.21-.17-.26-.3-.04-.07-.03-.16,0-.23.22.09.44.22.69.19,0-.07,0-.14-.05-.2-.12-.17-.3-.29-.43-.46-.31-.44-.55-.96-.52-1.51,0-.19.07-.38.11-.56-.03-.11-.16-.11-.25-.15-.07-.02-.16-.07-.13-.15.11-.39.41-.67.57-1.04.1,0,.19,0,.29,0,.44-.34.76-.82,1.23-1.12.16-.11.35-.18.53-.25-.07-.28-.43-.35-.49-.63-.02-.28.05-.56.19-.8.2-.33.52-.55.8-.81.04-.03.07-.07.12-.07.38-.02.77,0,1.14.09.07,0,.1.07.15.11.33.34.76.6,1.23.7.27.06.55.08.83.07-.15-.18-.37-.28-.57-.4.34-.04.65.14.91.32.15.11.29.22.42.36.77-.03,1.53-.08,2.3,0,.27.03.55.08.78.23.3.19.57.42.78.71.09.12.13.28.26.37.11.07.2.2.16.34.43.33.94.59,1.29,1.03.23.29.34.65.36,1.01.45-.09.83-.39,1.28-.46.37-.07.76.02,1.11.15.26.08.51.2.79.23.73.08,1.47,0,2.2-.1.08-.02.14.03.2.08.23.18.37.45.54.69.17.27.43.53.4.87Z"/>
      <path class="cls-1" d="m83.2,115s.71.91-.03,1.73l.03-1.73Z"/>
      <path class="cls-1" d="m75.75,111.85s.81,1.25,2.59,1.76-.79-.7-.79-.7l-1.8-1.06Z"/>
      <path class="cls-1" d="m76.49,109.08s1.49.77,3.19,2.89l-.12.37-3.07-3.26Z"/>
      <path class="cls-1" d="m80.4,123.13c-.07.31-.21.67-.47,1.06-.44.03-1.61.09-2.05.11,2.65.72,2.48-.99,2.52-1.17Z"/>
      <path class="cls-1" d="m80.41,123.09s0,0,0,0c0,0,0,0,0,0Z"/>
      <path class="cls-1" d="m68.15,119.5s2.09,2.26,6.13,3.64l-.38-.61.09-.94-.31-.63-.21-.68-.34-.56-2.26-.6-.61.7-2.11-.31Z"/>
    </g>
    <g>
      <path class="cls-12" d="m85.34,98.57h-2.66c-.56,0-.94-.3-1.03-.79l-.53-3.09h0s0-.03,0-.05c.9-1.57,1.3-2.25,1.47-2.53.03-.05.06-.09.08-.12.33-.5.63-.55.66-.56.03,0,.06,0,.09-.01.08.1.14.23.16.37l.53,2.88h0c.23,1.37.47,2.75.56,3.12.2.77.66.78.68.78Z"/>
      <path class="cls-4" d="m75.39,91.05s-.5,0-.97.75c-.09.14-.26.44-.48.82-.22.39-.49.87-.77,1.38-.15.26-.3.54-.44.81h0l-.62,1.12h0s-1.04,1.88-1.04,1.88c-.26.48-.77.76-1.34.76h-2.73s.5,0,.97-.75c.23-.35.97-1.69,1.69-3.01l1.66-3c.26-.48.76-.76,1.34-.76h2.73Z"/>
      <path class="cls-4" d="m83.33,91.05s-.5,0-.97.75c-.09.15-.28.47-.52.9-.24.42-.53.95-.83,1.49-.11.21-.23.41-.34.62l-.68,1.21-.99,1.79c-.26.48-.76.76-1.34.76h-2.73s.5,0,.97-.75c.09-.14.26-.43.47-.81.22-.38.48-.86.76-1.36.15-.27.31-.56.46-.84h0l.42-.75,1.24-2.25c.26-.48.76-.76,1.34-.76h2.73Z"/>
      <g>
        <path class="cls-12" d="m76.45,96.34c-.39.7-.71,1.26-.85,1.47-.4.63-.8.73-.93.75-.24-.01-.45-.08-.61-.2-.19-.13-.31-.33-.35-.59l-.53-3.09h0s0-.03,0-.05c.9-1.57,1.3-2.25,1.47-2.53.03-.05.06-.09.08-.12.33-.5.63-.55.66-.56.03,0,.06,0,.09-.01.08.1.14.23.16.37l.53,2.88h0c.09.58.2,1.16.28,1.67Z"/>
        <g>
          <path class="cls-1" d="m77.36,98.57h.04s-.01,0-.02,0c0,0-.01,0-.02,0Z"/>
          <path class="cls-1" d="m77.38,98.57s-.01,0-.02,0h.04s-.01,0-.02,0h0Z"/>
        </g>
      </g>
    </g>
  </g>
  <g>
    <path class="cls-2" d="m62.57,34.94h-6.64v-.25c0-.93.11-1.59.32-1.97.21-.38.73-.58,1.55-.58l1.34-.08c.27,0,.52,0,.75-.02.23-.02.55-.05.96-.12.41-.06.68-.18.8-.34.12-.17.18-.44.18-.83,0-.44-.09-.75-.27-.92-.18-.18-.5-.27-.95-.27l-1.48-.04-1.15.04c-.47,0-.8.09-.99.27-.19.18-.28.52-.28,1.04v.31h-.71c0-.76.09-1.3.27-1.61.18-.31.51-.5.99-.55.48-.06.83-.09,1.04-.1.22,0,.49-.01.84-.01h.7c.98,0,1.68.1,2.11.3.43.2.64.72.64,1.56,0,.65-.14,1.12-.41,1.41-.28.29-.75.43-1.41.43l-1.54.11-1.27.1c-.56,0-.92.1-1.07.31-.15.21-.22.61-.22,1.2h5.92v.63Z"/>
    <path class="cls-2" d="m68.23,28.93l1.7-.04,1.95.04c.41,0,.73.13.97.4.24.27.38.58.43.93.05.35.08.67.09.95.01.28.02.59.02.91,0,.75-.04,1.3-.11,1.67-.07.37-.26.66-.58.88-.31.22-.82.33-1.53.33h-2.75c-.5,0-.93-.09-1.26-.27-.34-.18-.54-.44-.61-.79-.07-.35-.11-.67-.13-.98-.02-.3-.03-.62-.03-.94,0-.43,0-.77.01-1.01,0-.24.05-.55.12-.92.07-.38.25-.66.53-.87.28-.2.67-.31,1.18-.31Zm.35,5.43l1.28.04,1.33-.04c.44,0,.77-.06.98-.17s.33-.32.37-.62c.04-.3.06-.59.08-.87.01-.28.02-.55.02-.81,0-.32,0-.63-.02-.92-.02-.3-.05-.56-.12-.8-.06-.24-.2-.4-.41-.49s-.49-.13-.84-.13l-1.32-.04-1.31.04c-.46,0-.8.06-1.03.17-.22.11-.35.32-.38.64-.03.32-.06.61-.07.88s-.02.53-.02.77l.07,1.35c.04.39.17.65.4.78s.55.2.98.2Z"/>
    <path class="cls-2" d="m83.99,34.94h-6.64v-.25c0-.93.11-1.59.32-1.97.21-.38.73-.58,1.55-.58l1.34-.08c.27,0,.52,0,.75-.02.23-.02.55-.05.96-.12.41-.06.68-.18.8-.34.12-.17.18-.44.18-.83,0-.44-.09-.75-.27-.92-.18-.18-.5-.27-.95-.27l-1.48-.04-1.15.04c-.47,0-.8.09-.99.27-.19.18-.28.52-.28,1.04v.31h-.71c0-.76.09-1.3.27-1.61.18-.31.51-.5.99-.55.48-.06.83-.09,1.04-.1.22,0,.49-.01.84-.01h.7c.98,0,1.68.1,2.11.3.43.2.64.72.64,1.56,0,.65-.14,1.12-.41,1.41-.28.29-.75.43-1.41.43l-1.54.11-1.27.1c-.56,0-.92.1-1.07.31-.15.21-.22.61-.22,1.2h5.92v.63Z"/>
    <path class="cls-2" d="m89.92,30.89c.23-.02.47-.03.71-.03h1.33c.74,0,1.35.07,1.84.22.49.15.75.39.79.72.04.33.06.57.07.7,0,.13,0,.28,0,.44,0,.73-.13,1.25-.39,1.55-.26.3-.76.45-1.5.45l-.94.05-1.92-.05c-.68,0-1.18-.11-1.5-.32-.32-.21-.48-.65-.48-1.31v-.21h.69c0,.42.08.71.23.89s.43.28.84.32l1.58.04,1.56-.04c.42,0,.71-.09.87-.28s.24-.48.24-.87c0-.69-.07-1.13-.21-1.33-.14-.2-.54-.3-1.22-.3l-2.23-.05c-.44,0-.79.03-1.03.08-.24.05-.4.21-.48.49h-.74l.08-3.12h6.36v.63h-5.71l-.04,1.98c.05-.03.28-.37.48-.47.19-.1.43-.16.71-.18Z"/>
  </g>
  <g>
    <path class="cls-6" d="m136.57,62.28c-1.71-6.43-3.51-12.85-5.34-19.08l-.42-1.44-1.5-.08c-2.57-.14-5.14-.28-7.72-.4l-1.64-.08-.49,1.56c-1.61,5.12-3.28,10.24-4.96,15.24h-.05c.08-.56.15-1.14.17-1.76v-.05s-.04-6.31-.04-6.31c.03,0,2.37.17,2.37.17l-.06-8.98-2.02-.08c-2.13-.09-4.27-.17-6.42-.24.83-.78,1.66-1.57,2.46-2.35l3.78-3.65h-12.58l-.64.83c-1.12,1.46-2.3,2.96-3.48,4.46l-.32.4c-2.41-.05-4.83-.1-7.23-.14l-2.16-.03v1.85c-.76-.59-1.64-1.06-2.6-1.37-1.44-.51-2.89-.53-4.17-.54h-.22c-1.69-.01-3.37-.01-5.06-.01-2.17,0-4.34,0-6.51.02h-2.11s-.02,8.36-.02,8.36c0,0,2.31-.03,2.38-.03v6.66c-.29,0-.62.02-.93.03-.31,0-.64.02-.91.02-1.83-4.84-3.5-9.29-5.07-13.56l-.52-1.41-1.51.02c-2.58.04-5.16.09-7.74.15l-1.45.03-.5,1.36c-1.86,5.13-3.65,10.18-5.34,15.03-.37.05-.77.1-1.08.14-.18.02-.37.04-.53.06-.22-2.54-.43-5.07-.64-7.61.07,0,2.19-.13,2.19-.13l.06-8.68-2.21.08c-3.44.12-6.91.26-10.29.41l-1.56.07-.4,1.51c-.43,1.63-.85,3.27-1.27,4.92-.38-1.52-.76-3.05-1.13-4.57l-.42-1.71-1.75.09c-3.41.18-6.86.38-10.27.59l-1.99.12v9.82s2.17-.24,2.17-.24c-.27,3.48-.53,6.96-.79,10.44-.26.06-2.4.58-2.4.58v10.01l2.71-.78c3.48-1,7.02-1.94,10.52-2.77l1.62-.39.02-4.16c1.11-.22,2.24-.43,3.36-.63l-.02,4.04,2.55-.5c3.51-.69,7.09-1.31,10.64-1.85l.55-.08.54-.08c3.33-.47,6.72-.87,10.07-1.19l1.08-.1,1.05-.09c3.35-.27,6.76-.48,10.13-.61l.63-.02.63-.02c2.15-.06,4.33-.09,6.48-.09,1.66,0,3.34.02,5,.05l2.17.05v-5.78c.72-.05,1.49-.14,2.25-.35,2.19-.6,3.98-2.1,5.03-4.06v1.07c.03,2.81,1,5.3,2.74,7.01,2.65,2.6,6.37,3.59,9.01,3.97.79.11,1.59.17,2.36.17,2.98,0,5.46-.84,7.18-2.43l.05-.04s.09-.1.13-.14l.02,3.54,1.73.32c3.32.6,6.68,1.29,9.99,2.04l1.06.24,1.05.25c3.31.8,6.65,1.69,9.94,2.63l2.71.78v-10s-1.95-.47-2.09-.51Zm-32.97-6.35c-.08.02-.21.04-.42.04-.09,0-.18,0-.26-.01-.49-.04-.9-.25-1.09-.44-.06-.15-.12-.37-.12-.63l-.04-5.79s.91.04.91.04c0,0,.9.05,1,.05l.04,6.26c0,.26-.02.4-.03.47Z"/>
    <path class="cls-10" d="m125.26,54.19c.03-.12.05-.23.08-.35.03.12.05.25.08.37-.05,0-.11-.02-.16-.02Z"/>
    <path class="cls-10" d="m14.91,63.76s1.78-.43,2.33-.56c.32-4.28.64-8.56.97-12.84-.44.05-2.28.25-2.28.25v-7.27s.83-.05.83-.05c3.4-.21,6.85-.41,10.26-.59l.73-.04.17.71c.77,3.15,1.56,6.29,2.33,9.35.81-3.23,1.65-6.48,2.49-9.68l.16-.63.65-.03c3.4-.15,6.86-.29,10.28-.41l.91-.03-.04,6.22s-1.8.11-2.3.14c.29,3.39.57,6.79.86,10.18.47-.06,2.4-.3,2.4-.3l-.04,6.21-.74.11c-3.56.53-7.16,1.16-10.69,1.85l-1.06.21.02-4.02c-1.84.33-3.7.68-5.54,1.04l-.32.06-.02,4.2-.67.16c-3.52.84-7.08,1.78-10.58,2.79l-1.12.32v-7.37Zm19.49-3.97c.2-.03.38-.06.57-.09"/>
    <path class="cls-1" d="m15.79,64.46c.76-.18,1.52-.36,2.28-.54.36-4.85.73-9.69,1.1-14.53-.79.08-1.57.17-2.36.25,0-1.82,0-3.64,0-5.46,3.42-.21,6.83-.41,10.25-.59.82,3.35,1.66,6.7,2.51,10.04.17.69.29,1.42.46,2.08.08.3.15.58.18.87.02,0,.04,0,.06,0,.03-.29.11-.59.19-.92.18-.7.33-1.46.51-2.19.86-3.4,1.73-6.8,2.61-10.19,3.42-.15,6.85-.29,10.27-.41-.01,1.49-.02,2.99-.03,4.48-.79.05-1.58.1-2.37.15.34,4,.67,7.99,1.01,11.99.77-.1,1.54-.2,2.31-.3,0,1.49-.02,2.97-.03,4.46-3.59.54-7.17,1.16-10.73,1.86,0-1.59.02-3.18.03-4.77.73-.12,1.1-.18,1.84-.3-.09-2.13-.18-4.26-.27-6.39-.03-.52-.02-1.19.07-1.78.04-.4.06-.59.1-.99-.05,0-.07,0-.12.01-.06.31-.13.63-.22.94-.18.71-.27,1.06-.45,1.77-.67,2.56-1.33,5.12-1.98,7.69-1.86.33-3.71.68-5.56,1.04-.64-2.5-1.27-4.99-1.89-7.49-.18-.73-.28-1.09-.46-1.82-.09-.32-.15-.64-.18-.94-.05,0-.07,0-.12.02.04.42.05.63.09,1.05.03.64.06,1.28.02,1.92-.1,2.34-.2,4.68-.3,7.02.73-.15,1.1-.22,1.83-.37,0,1.68-.01,3.36-.02,5.04-3.56.85-7.1,1.78-10.62,2.8v-5.51Z"/>
    <path class="cls-10" d="m45.02,58.27s1.55-.18,1.91-.22c1.75-5.07,3.63-10.37,5.59-15.76l.2-.56h.6c2.58-.07,5.15-.13,7.73-.17h.62s.22.57.22.57c1.66,4.51,3.43,9.22,5.39,14.41.35-.01,2.01-.06,2.01-.06v5.85s-.86.03-.86.03c-3.38.13-6.81.34-10.18.61l-.96.08.03-5.97s1.32-.09,1.53-.11v-.03c-1.14.07-2.29.15-3.42.23v.05c.15-.01,1.49-.12,1.49-.12l-.03,5.98-.79.08c-3.36.32-6.77.73-10.12,1.2l-1.01.14.04-6.22Zm11.92-6.86c.15,0,.3-.02.46-.02-.07-.28-.15-.55-.22-.83l-.24.85Z"/>
    <path class="cls-1" d="m45.89,59.06c.68-.08,1.01-.12,1.69-.19,1.88-5.44,3.8-10.86,5.76-16.27,2.57-.06,5.15-.11,7.72-.15,1.85,5.01,3.72,10.01,5.62,15,.69-.03,1.04-.04,1.73-.06,0,1.37,0,2.73,0,4.1-3.41.13-6.82.34-10.22.61,0-1.4.01-2.8.02-4.2.7-.05,1.05-.07,1.76-.12-.17-.7-.26-1.06-.43-1.76-1.6.1-3.2.21-4.8.33-.18.74-.27,1.11-.45,1.86.7-.06,1.05-.09,1.76-.14l-.02,4.23c-3.39.33-6.78.73-10.16,1.2,0-1.48.02-2.95.03-4.43Zm12.63-6.85c-.24-.89-.47-1.78-.71-2.67-.22-.73-.3-1.39-.4-1.84-.06-.27-.12-.52-.15-.76-.06,0-.09,0-.16,0-.05.31-.08.46-.13.77-.11.63-.26,1.27-.45,1.88-.26.92-.51,1.84-.77,2.76.92-.05,1.84-.1,2.76-.15Z"/>
    <path class="cls-10" d="m68.82,56.49s1.88-.04,2.39-.05v-9.14c-.49,0-2.37.02-2.37.02v-5.85s.88,0,.88,0c2.16-.01,4.32-.02,6.48-.02,1.69,0,3.38,0,5.07.01h.22c1.19.01,2.54.02,3.8.48,3.08.97,5.19,3.88,5.2,7.23.01,3.33-2.11,6.24-5.17,7.08-1.08.29-2.19.33-3.18.34v5.72s-.89-.02-.89-.02c-1.67-.04-3.36-.05-5.03-.05-2.16,0-4.35.03-6.51.09l-.91.03v-5.85Zm11.73-6.11c.62,0,.9-.1,1.19-.27.34-.21.39-.76.39-1.07,0-.39-.06-.9-.38-1.1l-.04-.03c-.25-.18-.62-.27-1.15-.27-.32,0-.56,0-.81,0v2.75c.22,0,.8,0,.8,0Z"/>
    <path class="cls-1" d="m69.69,57.35c.8-.02,1.59-.04,2.39-.05,0-3.63,0-7.26.01-10.89-.79,0-1.59.01-2.38.02,0-1.36,0-2.73,0-4.09,3.85-.02,7.7-.03,11.54,0,1.24.01,2.54,0,3.72.43,2.79.88,4.61,3.51,4.62,6.41.01,2.83-1.75,5.47-4.53,6.23-1.17.31-2.41.31-3.61.31-.87-.02-1.74-.03-2.61-.04,0,.65,0,.97,0,1.62.8,0,1.59.02,2.39.04,0,1.36,0,2.72,0,4.08-3.86-.08-7.72-.07-11.58.04v-4.09Zm10.77-6.09c.78,0,1.25-.12,1.72-.4.63-.39.81-1.14.81-1.82,0-.68-.16-1.44-.79-1.84-.41-.3-.94-.44-1.66-.44-.68,0-1.02,0-1.69-.01,0,1.5,0,3,0,4.5.64,0,.96,0,1.6.02Z"/>
    <path class="cls-10" d="m104.8,64.36c-.71,0-1.45-.05-2.18-.16-2.46-.35-5.91-1.26-8.32-3.62-1.5-1.47-2.34-3.65-2.36-6.13l-.03-6.95c-.5-.01-2.35-.06-2.35-.06l-.03-5.9h.9c2.6.05,5.23.1,7.84.16l.7-.89c1.19-1.5,2.36-3.01,3.49-4.48l.26-.34h8.89l-1.57,1.51c-1.51,1.45-3.07,2.93-4.65,4.39,3.13.1,6.29.21,9.43.34l.84.03.04,6.45s-1.9-.13-2.37-.17l.05,7.61c-.1,2.73-.82,4.71-2.22,6.08-1.9,1.76-4.5,2.12-6.36,2.12Zm-4.02-8.15c.4.54,1.19.93,2.03,1,.12.01.24.02.37.02.48,0,1.1-.09,1.41-.5.15-.2.29-.49.29-1.26l-.05-7.43c-.5-.03-2.31-.12-2.31-.12v-.02l-.7-.02c-.46-.02-.93-.04-1.39-.06l.04,7.1c0,.65.21,1.1.31,1.3Z"/>
    <path class="cls-1" d="m92.78,46.64c-.78-.02-1.57-.05-2.35-.07,0-1.38-.01-2.77-.02-4.15,3.8.06,7.61.14,11.41.24,0,1.44.02,2.89.03,4.33-.77-.04-1.54-.07-2.31-.1.02,2.67.03,5.35.05,8.02,0,.7.2,1.32.45,1.76.6.85,1.7,1.32,2.7,1.4.89.08,1.98-.05,2.56-.84.34-.45.46-1.01.46-1.79-.02-2.75-.04-5.51-.06-8.26-.77-.04-1.54-.08-2.31-.12,0-1.45-.02-2.91-.03-4.36,3.81.11,7.62.24,11.43.4,0,1.55.02,3.11.03,4.66-.79-.06-1.58-.11-2.37-.16.02,2.85.04,5.7.06,8.56-.07,1.97-.5,4.02-1.96,5.45-2.03,1.87-5.22,2.09-7.8,1.72-2.79-.4-5.78-1.37-7.83-3.38-1.45-1.42-2.08-3.5-2.1-5.51-.01-2.6-.02-5.2-.04-7.79Zm10.38-9.78h6.28c-1.61,1.55-3.23,3.08-4.87,4.59-1.64-.04-3.27-.07-4.91-.1,1.18-1.49,2.35-2.98,3.5-4.49Z"/>
    <path class="cls-10" d="m136.29,70.81c-3.3-.95-6.66-1.84-9.99-2.65l-.67-.16-.03-6.83s1.37.27,1.51.3l-.08-.41c-1.1-.2-2.21-.4-3.31-.59l-.07.33c.26.05,1.57.3,1.57.3l.03,6.81-1.08-.24c-3.32-.75-6.7-1.44-10.04-2.05l-.72-.13-.04-6.4s1.68.25,1.97.3c1.79-5.32,3.57-10.78,5.3-16.25l.2-.65.68.03c2.57.12,5.14.26,7.71.4l.62.03.17.59c1.9,6.45,3.76,13.1,5.52,19.77.39.09,1.86.45,1.86.45v7.37l-1.12-.32Zm-10.68-16.42c-.09-.41-.18-.81-.26-1.22-.09.38-.18.76-.27,1.14.18.03.36.05.53.08Z"/>
    <path class="cls-1" d="m114.26,60.11c.67.1,1.01.15,1.68.26,1.91-5.64,3.75-11.29,5.54-16.97,2.57.12,5.13.26,7.7.4,1.98,6.73,3.86,13.48,5.65,20.25.68.16,1.02.24,1.7.4v5.51c-3.32-.96-6.67-1.84-10.03-2.66,0-1.69-.01-3.38-.02-5.07.69.14,1.04.21,1.74.35-.15-.76-.29-1.52-.44-2.28-1.58-.29-3.16-.58-4.75-.85-.14.68-.28,1.36-.42,2.04.7.13,1.04.19,1.74.33,0,1.66.02,3.32.02,4.98-3.34-.76-6.7-1.45-10.08-2.06-.01-1.55-.02-3.09-.03-4.64Zm12.48-4.67c-.24-1.12-.48-2.23-.73-3.35-.16-.76-.29-1.52-.41-2.27-.06-.33-.13-.63-.16-.93-.06,0-.09,0-.16-.01-.05.36-.07.54-.12.9-.1.73-.26,1.45-.43,2.17-.24,1.04-.49,2.07-.73,3.11.91.13,1.82.26,2.74.39Z"/>
  </g>
  <path class="cls-7" d="m25.28,86.09l2.75-13.3c30.03-7.69,66.23-7.69,96.26,0l2.75,13.3c-30.23-9.22-71.53-9.22-101.76,0h0Z"/>
  <text class="cls-3" transform="translate(37.36 80.6) rotate(-9.59)"><tspan x="0" y="0">M</tspan></text>
  <text class="cls-3" transform="translate(51.97 78.27) rotate(-5.47)"><tspan x="0" y="0">C</tspan></text>
  <text class="cls-3" transform="translate(63.53 77.18) rotate(-1.71)"><tspan x="0" y="0">M</tspan></text>
  <text class="cls-3" transform="translate(78.38 76.91) rotate(.97)"><tspan x="0" y="0"> </tspan></text>
  <text class="cls-3" transform="translate(82.94 76.95) rotate(3.22)"><tspan x="0" y="0">C</tspan></text>
  <text class="cls-3" transform="translate(94.55 77.66) rotate(6.64)"><tspan x="0" y="0">U</tspan></text>
  <text class="cls-3" transform="translate(106.29 79.09) rotate(10.35)"><tspan x="0" y="0">P</tspan></text>
</svg>